<?xml version="1.0" encoding="utf-8"?>
<!-- Generator: Adobe Illustrator 19.1.0, SVG Export Plug-In . SVG Version: 6.00 Build 0)  -->
<svg version="1.1" id="Ebene_1" xmlns="http://www.w3.org/2000/svg" xmlns:xlink="http://www.w3.org/1999/xlink" x="0px" y="0px"
	 viewBox="0 0 28 28" style="enable-background:new 0 0 28 28;" xml:space="preserve">
<style type="text/css">
	.st0{fill:#FF7214;}
</style>
<path class="st0" d="M16,13h-4c0,4.8-4,12-4,12h12C20,25,16,16.6,16,13z"/>
<polygon class="st0" points="25,25 17,25 19,18.6 23,18.6 "/>
<polygon class="st0" points="13.3,25 3,25 5.3,16.2 9.9,16.2 "/>
<polygon class="st0" points="12,12 10.6,9.7 10.2,7.6 11.6,10.2 "/>
<path class="st0" d="M7.8,7.8c0,0-1.3-1-1.8-1.1S3.7,6.1,3.7,6.1s0.4-0.8,0.6-0.8s1.9,0.3,1.9,0.3L7.8,7.8z"/>
<path class="st0" d="M9.2,7.8c0,0-0.7-1.4-0.8-1.6S6.8,3.9,6.7,3.8s-1-0.4-1-0.4l0.7-0.8h2.4c0,0,0.1,1.9,0.1,2.4S9.2,7.8,9.2,7.8z"
	/>
<path class="st0" d="M12.8,7.4c0,0-0.8-0.8-1.1-1.3S10.8,4,10.8,4l-0.6-1.6c0,0,0.6-0.3,0.7-0.2s0.7,1.5,0.6,1.6S12.8,7.4,12.8,7.4z
	"/>
<polygon class="st0" points="12.9,12 11.5,8.2 11.8,7.6 12.9,10.3 "/>
<path class="st0" d="M14,11.9l-0.8-2.8c0,0,0.3-1.3,0.3-1.5s0.1-3.2,0.1-3.2l0.2,1.7l0.3,3L14,11.9z"/>
<path class="st0" d="M12.9,3.7c0,0-0.7-1.7-0.7-1.9s0.6-0.5,0.6-0.5l0.8,0.3L12.9,3.7z"/>
<polygon class="st0" points="16.8,12 18.3,9.7 18.7,7.6 17.3,10.2 "/>
<path class="st0" d="M21,7.8c0,0,1.3-1,1.8-1.1s2.3-0.7,2.3-0.7s-0.4-0.8-0.6-0.8s-1.9,0.3-1.9,0.3L21,7.8z"/>
<path class="st0" d="M19.7,7.8c0,0,0.7-1.4,0.8-1.6s1.6-2.4,1.7-2.4s1-0.4,1-0.4l-0.7-0.8H20c0,0-0.1,1.9-0.1,2.4S19.7,7.8,19.7,7.8
	z"/>
<path class="st0" d="M16.1,7.4c0,0,0.8-0.8,1.1-1.3S18.1,4,18.1,4l0.6-1.6c0,0-0.6-0.3-0.7-0.2s-0.7,1.5-0.6,1.6S16.1,7.4,16.1,7.4z
	"/>
<polygon class="st0" points="16,12 17.4,8.2 17,7.6 16,10.3 "/>
<path class="st0" d="M14.8,11.9l0.8-2.8c0,0-0.3-1.3-0.3-1.5s-0.1-3.2-0.1-3.2L15,6.2l-0.3,3L14.8,11.9z"/>
<path class="st0" d="M16,3.7c0,0,0.7-1.7,0.7-1.9s-0.6-0.5-0.6-0.5l-0.8,0.3L16,3.7z"/>
<g>
</g>
<g>
</g>
<g>
</g>
<g>
</g>
<g>
</g>
<g>
</g>
</svg>
