<?xml version="1.0" encoding="utf-8"?>
<!-- Generator: Adobe Illustrator 19.1.0, SVG Export Plug-In . SVG Version: 6.00 Build 0)  -->
<svg version="1.1" id="Ebene_1" xmlns="http://www.w3.org/2000/svg" xmlns:xlink="http://www.w3.org/1999/xlink" x="0px" y="0px"
	 viewBox="0 0 540.6 158" enable-background="new 0 0 540.6 158" xml:space="preserve">
<path fill="#E3000B" d="M135.8,124c-0.9-1.4-2.4-2.2-2.9-5.5c-0.5-3.3,2.2-4.1,0-6.4c-2.2-2.3-1.7-6.2-0.5-8.4
	c1.1-2.2-4.7-8.9-4.4-11.3c0.3-2.4-1.2-4.5-4.2-6.9c-3-2.5-13,1.2-15.8,0.3c-2.8-0.9-5.4-4.5-7.3-8.3c-1.9-3.9-1.2-10.6-0.7-12
	c0.5-1.4,1.5-2.6,4-4.4c2.5-1.7,4.5-6.1,4.5-6.1s0.6-1,1.7-1.6c1.1-0.6,3.2-1,4.2-0.5c0.9,0.5,3.3,0.3,4.8-0.7
	c1.5-1.1,5.6-1,7.7-1.2c2.1-0.2,2.1,1,2.1,2.8c0,1.8,3.3,1.6,5.5,2.8c2.2,1.2,3.7,1.3,3.9,0.3c0.2-1,0.6-1.1,2-1.6
	c0.2-0.1,2.2,0,3.1,0.7c0.9,0.7,1.7,1.3,3.1,1.9c1.4,0.6,3.4-0.4,4.8-0.6s0.6-1.6,0.2-2.9c-0.4-1.3-1.2-0.4-1.5-1.3
	c-0.3-0.9-0.3-1.6-1.3-1.6c-1,0-1.3,0-2.5-0.2c-1.2-0.2-1.5-1.6-1.8-2.6s-0.3-2.3-1.2-2.4c-1-0.1-1.2,1-1.7,2.8
	c-0.5,1.8-1.3,1.4-2.4,0.2c-1.1-1.2-1.2-2.5-1.2-3.3c0-0.8-1.6-2.2-2.5-2.9c-0.9-0.8-2.2-1.4-3.1-0.7c-0.9,0.6,0,2,0.3,2.8
	c0.3,0.9,3,1.7,3.7,2.4c0.7,0.7-0.4,0.8-0.8,1.6c-0.4,0.9-0.6,1.4-2.5,2.2c-1.8,0.8-1.7-1.5-0.9-2c0.8-0.5,1.9-0.5,1.3-1.5
	c-0.6-1-3.1-2.1-4.1-2.8c-1-0.7-1.4-2.4-2.9-1.1c-1.5,1.3-2.3-0.3-3.9,0.9c-1.5,1.2-1.9,0.9-3.3,4.3c-1.4,3.4-7.4,1.8-8.8,1.2
	c-1.4-0.7-0.5-3.6-0.3-5.1c0.2-1.6,4-1.9,5.5-1.6c1.5,0.3,2.7-0.5,3-1.7c0.3-1.2-1.6-1-1.3-2.4c0.2-1.4,2.2-1.7,4.2-2
	c2-0.3,1.8-2.5,2.8-3.9c1-1.4,3.4,0.4,5.4-0.1c2-0.5,0.6-2.2,0.4-3.7c-0.2-1.5-3.1,1.3-3.5,0.4c-0.3-0.9-1.7-0.8-2.6-2.2
	c-0.9-1.4,1.2-3.4,3-4.1c1.9-0.7,1-1.5,2.6-2.3c1.3-0.6,3.8,0.4,6.2,2.5C121.4,9.2,101.3,0,79,0C60.1,0,42.7,6.7,29.1,17.8
	c1.4-0.5,3.6-0.6,4.8-0.8c1.5-0.2,2.5,0,4.5,0.3c1.9,0.3,2.7,1,4.5,2.1c1.9,1.2,4,0,3.5-1.5s-2.9-1.9-4.6-1.9
	c-1.8,0,1.5-2.9,3.5-3.4c2-0.5,4.1,1.6,5.9,2.1c1.8,0.5,3.8-1.3,4.7,0.1c1,1.4-3.3,2.4-4.3,2.4c-1,0,0.3,2.7,2.4,2.6
	c2.2-0.1,4.2-0.9,5.5-1.5c1.3-0.6-0.2-2-1.5-2.2c-1.3-0.2,1.2-1.9,3.1-2.4c2-0.5,1.8,1.1,1.3,3.1c-0.6,2,2.7,0.1,3.2-1.1
	s4.5-1.7,6.6-1.9c2-0.2,6.3,2.1,7.7,2.7c1.4,0.6,2.2,5,1.3,5.8c-1,0.8-2.2-0.5-3.1,1.1c-0.9,1.5-6,0.1-7.1-0.8
	c-1.1-0.9,2.7-0.7,4.3-2.3c1.6-1.6-1.8-1.2-3.5-2c-1.7-0.8-4.4,1.7-5.6,2.5s-1.7,1.3-1.7,2.5s-2.4,2-3.2,1.1
	c-0.8-0.9-2.7-1.5-4.5-0.8c-1.8,0.8-5.2,2.4-6,3.5c-0.9,1.2,1.3,3.2,2.7,4.1c1.4,0.9,3.8,1.5,3.8,3c0,1.5,1.8,1.6,2.1,1
	c0.3-0.6,1.3-2.8,3.3-3.4s2.1-1.8,2.1-3.3s-0.5-4.1,2.3-4.3c2.7-0.2,5.4,1.8,5.2,2.6c-0.2,0.9,0,1.7,3.4,1.1
	c3.4-0.6,0.7,2.6,2.7,3.9c2.1,1.3,2.3,3.3,2.3,4.1c0,0.9-2.8,1-2.1,2.1c0.7,1.1,2.8,1.3,2.8,2.7c-0.1,1.4-2.8-0.1-4.6-0.6
	c-1.7-0.5,0.4-3.3-0.3-3.8s-1.3,0.2-2,1.5c-0.6,1.3-2.6-0.3-3.9-1.6c-1.3-1.3-2.1-0.4-2.4,0.6c-0.4,1,2.1,2.6,1.2,3.6
	s-1.8-1-2.6-0.6c-0.8,0.4-2,2.2-2.2,3.1c-0.2,1-3.5,2-5,2.8c-1.5,0.8-3.5,2.2-4.7,4.9c-1.3,2.7-5.5,5.8-6.7,6.9
	c-1.2,1.2-0.1,4.1-0.4,5.4c-0.3,1.3-2.8,0.7-3.2-1.5c-0.4-2.2-1.9-2.8-4.9-2.8c-3.1,0-5.2,0.6-6.9,1.4c-1.7,0.9-3.4,3.7-4,5.2
	c-0.6,1.4-0.8,4,1.2,5.4c2,1.4,5.8-1.4,7.5-2.5c1.7-1.1,1.9,0.2,1.6,1.8c-0.3,1.5-2,2.6,0.8,2.9c2.7,0.3,1.3,0.8,2.6,4.4
	c1.3,3.7,6.7,3.5,8.6,1.2c1.9-2.2,5.9-0.9,6.9,0c1,0.9,4.1,2.4,5.6,1.2c1.5-1.2,2.6-0.1,3.5,1.2c0.8,1.3,2,3.1,5.9,3.1
	c3.9,0.1,1.8,5.4,2.9,7c1.2,1.6,4.7,2.6,8,2.1c3.3-0.6,1.6,1.7,6.5,3.4c4.9,1.7,0,6-0.8,7.1c-0.8,1.1-1.2,2.8-0.9,5.2
	c0.3,2.4-1.1,5.1-2.2,6c-1.1,0.9-3.1,0.9-5.1,0.9c-2-0.1-1.8,3.3-1.4,5.4c0.5,2-0.8,3.6-1.9,4.9c-1,1.3-1.3,1.7-3.1,4.3
	c-1.8,2.6-4.5,3.4-5.7,3.9c-1.2,0.5-2.8,1-2.1,1.9c0.8,0.9,1.1,1.4,0.3,2.4c-0.8,1,0,2.6,0.7,2.6c0.8,0,1.5,0.8,1.1,2.6
	c-0.4,1.8,0.3,3,1.1,3.6c0.8,0.7,2.6,2.5,1.3,3c-1.5,0.5-5-0.5-6.3-1.6c-1.3-1.1-3.6-3.8-4.2-5c-0.6-1.1-2.1-4.1-2-5.7
	c0.1-1.6,0.1-4.4-1.1-5.9c-1.2-1.6-0.7-4.9-0.4-6.2c0.2-1.3-1.9-3-1.3-4.8c0.5-1.8,0-8.8,0-10.3c0-1.5-5.5-3.5-7.1-4
	c-1.6-0.4-1.3-2.6-1.5-3.9c-0.3-1.3-3.7-4.7-4.6-6.3c-0.9-1.6-1-4.7,0.7-6.5c1.7-1.8,3.9-3.7,3.7-5.7c-0.2-2-5-1.6-6.1-2.3
	c-1.1-0.7-2.8-3.1-4.1-4.7c-1.3-1.5-3.8-1.5-5.4-1.8c-1.7-0.3-0.6-2-1.6-2.2c-1-0.1-2,0.7-3.2,0.4c-1.2-0.3-2.9-0.7-4.4-1.1
	c-1.4-0.4-3.1-4.2-2.7-5s0.3-2.9-1.7-4.6c-1.9-1.7-1.9-5.6-2.6-7.3c-0.8-1.7-1.6,0.6-1.4,2.2c0.2,1.6,0.9,3.1,2.2,5.1
	c1.3,2-0.2,3.2-1.5,3c-1.3-0.2-1.4-1.9-2.4-3.7c-1-1.8-0.9-3.8-0.9-5.3s-0.1-2.4-1.7-3.1c-1.6-0.7-1.5-4-1.5-5.1
	c0-0.9-0.8-2.6-0.5-4.4C2.8,55,0,66.7,0,79c0,43.6,35.4,79,79,79c24.9,0,47.2-11.6,61.7-29.6C139.7,129,136.7,125.4,135.8,124z
	 M114.4,29.2c0.1-0.9,1.4-1.4,2.1-1.1c0.7,0.3,1.2,0.8,1.3,1.6c0.2,0.8,0.8,2.2,1.3,3c0.5,0.7,3.4,2,2.2,2.8
	c-1.2,0.8-3.7,1.4-4.6,1.4c-0.9,0-1.4-1-1.4-1.7c0.1-0.7,2.7-2,1.2-3C115,31.3,114.2,30.1,114.4,29.2z M111.6,31.8c0,0,1-1,2.8,0
	c1.8,1-0.7,2.3-1.5,3.3c-0.8,1.1-2.5,0.7-2.8,0.2C109.8,34.8,110.6,32.5,111.6,31.8z"/>
<g>
	<rect x="151" y="70.3" fill="none" width="399.4" height="58.7"/>
	<path fill="#FFFFFF" d="M187.8,92.7c0-5.5-4.4-9.4-9.3-9.4c-5.8,0-11.3,4.8-11.3,11.3v13.9c0,1.3-0.8,2.1-2.2,2.1s-2.3-0.8-2.3-2.1
		V81.7c0-2.8,4.3-2.8,4.3,0.1v3.7c2.2-4.4,6.8-6.2,11.5-6.2c7,0,13.6,4.8,13.6,13.4v15.9c0,1.3-0.8,2.1-2.2,2.1
		c-1.3,0-2.2-0.8-2.2-2.1V92.7z"/>
	<path fill="#FFFFFF" d="M202.6,105.5c-2.7-3.2-3.8-7-3.7-11.5c0.6-6.7,4.5-12.2,11.1-14.1c1.4-0.4,3.1-0.5,4.6-0.5
		c1.4,0,2.9,0.1,4.4,0.5c6.5,1.9,10.6,7.4,11.2,14.1c0.2,4.5-1,8.3-3.6,11.5c-2.9,3.5-7.3,5.4-12,5.4
		C209.8,110.9,205.5,109,202.6,105.5z M214.5,83.4c-1.1,0-2.3,0.2-3.2,0.4c-5,1.3-8,6-8,11.4c0,2.7,0.8,5.5,2.6,7.6
		c2.1,2.5,5.3,4,8.6,4c3.2,0,6.5-1.6,8.6-4c1.7-2,2.6-4.9,2.6-7.5c0-5.5-2.9-10.2-8-11.5C216.9,83.6,215.7,83.4,214.5,83.4z"/>
	<path fill="#FFFFFF" d="M239.8,102.8c0.6,2.7,5.3,4.1,9.7,4.1c2.9,0,9.2-1.3,9.2-5.5c0-3.8-4.6-4-9.4-4.4
		c-6.5-0.6-13.4-1.1-13.4-8.5c0-6.4,7.3-9.2,13.1-9.2c4.6,0,11,0.8,13.1,6.2c0.8,2.7-3.3,3.8-4.1,1.6c-1.3-3.5-6.4-3.7-9.1-3.7
		c-3.5,0-8.7,1.5-8.7,5.2c0,3.8,4.4,3.8,9.2,4.1c6.6,0.6,13.6,1.2,13.6,8.7c0,7.6-8.6,9.4-13.6,9.4c-5,0-12.7-1.3-13.9-7.3
		C234.9,101.1,239.3,99.8,239.8,102.8z"/>
	<path fill="#FFFFFF" d="M283.3,79.8c2.7,0,2.7,3.8,0,3.8h-6.5v16.2c0,3.4,0.5,7,4.6,7c0.9,0,2.2-0.3,2.8-0.7
		c2.5-1.4,4.5,2.1,1.8,3.6c-1.5,0.8-3,1-4.6,1c-7.2,0-8.9-5.3-8.9-11V83.6h-4c-2.8,0-2.6-3.8,0-3.8h4v-7c0-2.9,4.3-2.8,4.3,0v7
		H283.3z"/>
	<path fill="#FFFFFF" d="M297.3,84.8c1.9-4,5.5-5.1,8.9-5.1c1.4,0,2.3,0.7,2.3,2.1c0,1.3-0.9,2-2.3,2c-6.2,0-8.8,4.9-8.8,11v13.6
		c0,1.3-1,2.1-2.2,2.1c-1.3,0-2.2-0.8-2.2-2.1V81.8c0-2.6,4.3-2.9,4.3,0V84.8z"/>
	<path fill="#FFFFFF" d="M320.7,80.6c2-0.9,4.1-1.2,6.4-1.1c3.4,0.1,7.3,1.1,9.5,4.7v-2.3c0-1.3,0.8-2.2,2.2-2.2
		c1.3,0,2.2,0.9,2.2,2.2v26.6c0,1.3-0.9,2.2-2.2,2.2c-1.4,0-2.2-0.8-2.2-2.2v-2.9c-1.7,3.5-6.2,5.5-9.7,5.5c-2.9,0-6.1-0.8-8.6-2.6
		c-4.6-3.1-6.9-8.2-6.7-14.1C311.7,88.3,315,82.8,320.7,80.6L320.7,80.6z M336.6,97.6v-4.7c0-5.9-4.1-9-9.5-9.2
		c-4.3-0.1-8.6,2.2-10.3,6.4c-0.5,1.3-0.8,2.9-0.9,4.4c-0.1,3.9,1.1,7.5,4.4,10.2c1.8,1.4,4,2.1,6.2,2.3
		C332,106.9,336.3,103.6,336.6,97.6z"/>
	<path fill="#FFFFFF" d="M364,79.5c4,0,7.9,1.7,9.7,4.9V72.4c0-2.8,4.4-2.8,4.4,0v36.2c0,1.3-0.8,2.1-2.2,2.1s-2-0.8-2-2.1v-2.8
		c-2,3.7-6.2,5.3-9.8,5.3c-1.9,0-3.9-0.4-5.8-1.1l0.1,0.1c-6.5-2.7-9.8-8.6-9.7-15.6C348.9,85.9,355,79.5,364,79.5z M373.7,97.6
		v-4.7c0-5.3-4.1-9-9.5-9.2c-4.3,0-8.5,2.3-10.3,6.4c-0.5,1.3-0.8,2.9-0.9,4.4c-0.1,3.9,1.2,7.5,4.4,10.2c1.7,1.4,3.9,2.1,6.2,2.3
		C369.1,106.9,373.7,103.5,373.7,97.6z"/>
	<path fill="#FFFFFF" d="M394.7,80.6c2-0.9,4.1-1.2,6.4-1.1c3.4,0.1,7.3,1.1,9.5,4.7v-2.3c0-1.3,0.8-2.2,2.2-2.2
		c1.3,0,2.2,0.9,2.2,2.2v26.6c0,1.3-0.9,2.2-2.2,2.2c-1.4,0-2.2-0.8-2.2-2.2v-2.9c-1.7,3.5-6.2,5.5-9.7,5.5c-2.9,0-6.1-0.8-8.6-2.6
		c-4.6-3.1-6.9-8.2-6.7-14.1C385.6,88.3,389,82.8,394.7,80.6L394.7,80.6z M410.6,97.6v-4.7c0-5.9-4.1-9-9.5-9.2
		c-4.3-0.1-8.6,2.2-10.3,6.4c-0.5,1.3-0.8,2.9-0.9,4.4c-0.1,3.9,1.1,7.5,4.4,10.2c1.8,1.4,4,2.1,6.2,2.3
		C406,106.9,410.3,103.6,410.6,97.6z"/>
	<path fill="#FFFFFF" d="M474.8,92.7c-0.1-5.2-4.3-8.9-9.3-8.9c-6.3,0-11.3,4.7-11.3,11.6v13.2c0,1.3-0.9,2.1-2.2,2.1
		c-1.3,0-2.2-0.8-2.2-2.1V93.7c0-3.4-1.4-6.7-4.1-8.5c-1.6-1-3.3-1.4-5.2-1.4c-5.9,0-11.2,4.5-11.2,11.2v13.5c0,2.8-4.4,2.7-4.4,0
		V81.8c0-1.1,1-2.1,2.2-2.1c1.3,0,2.1,1,2.1,2.1v4.1c2.4-4.3,6.7-6.2,11.3-6.2c5.2,0,10.4,2.6,12.2,7.9c2.2-5.3,7.4-7.9,12.7-7.9
		c6.9,0,13.9,4.6,13.9,12.8v16.1c0,1.3-0.9,2.1-2.2,2.1c-1.4,0-2.2-0.8-2.2-2.1V92.7z"/>
	<path fill="#E3000B" d="M488.5,73c0-3,4.5-2.9,4.5,0v35.9c0,2.8-4.5,2.9-4.5,0V73z"/>
	<path fill="#E3000B" d="M531.1,106.8c-3.3,2.6-7.6,4.3-11.9,4.3c-10.5,0-19.2-7.6-19.2-20.4c0-9.6,6.1-17.5,15.7-19
		c2.1-0.2,4.1-0.2,6.4,0c9.4,1.4,16.3,9.6,16.3,19c-0.1,5.3-1.4,10-4.3,13.1l3.4,3.5c2,2-1,4.9-3.1,2.9L531.1,106.8z M531.1,100.6
		c2.2-2.7,2.9-5.9,2.9-9.8c0-7.7-5.2-13.9-12.5-15.1c-1.7-0.2-3.4-0.2-5.2,0c-7.3,1.1-11.9,7.5-11.9,15.1c0,9.6,6.7,16.2,14.8,16.2
		c3.4,0,6.5-1.2,9.1-3.4l-3.4-3.4c-2.1-2.1,1.1-5,3.1-2.8L531.1,100.6z"/>
</g>
</svg>
