<?xml version="1.0" encoding="utf-8"?>
<!-- Generator: Adobe Illustrator 19.1.0, SVG Export Plug-In . SVG Version: 6.00 Build 0)  -->
<svg version="1.1" xmlns="http://www.w3.org/2000/svg" xmlns:xlink="http://www.w3.org/1999/xlink" x="0px" y="0px"
	 viewBox="0 0 309.6 309.6" style="enable-background:new 0 0 309.6 309.6;" xml:space="preserve">
<style type="text/css">
	.st0{display:none;}
	.st1{display:inline;}
	.st2{fill:none;}
	.st3{fill:#FFFFFF;}
	.st4{fill:#E3000B;}
	.st5{display:none;fill:#FFFFFF;}
	.st6{fill:#565655;}
	.st7{display:inline;opacity:0.75;fill:#F18C8C;}
	.st8{display:inline;opacity:0.75;}
	.st9{fill:none;stroke:#F18C8C;stroke-width:3;stroke-miterlimit:10;}
	.st10{fill:none;stroke:#F18C8C;stroke-width:3;stroke-miterlimit:10;stroke-dasharray:7.0612,7.0612;}
	.st11{fill:none;stroke:#F18C8C;stroke-width:3;stroke-miterlimit:10;stroke-dasharray:6.9542,6.9542;}
	.st12{fill:none;stroke:#F18C8C;stroke-width:3;stroke-miterlimit:10;stroke-dasharray:7.0597,7.0597;}
</style>
<g id="Ebene_2" class="st0">
</g>
<g id="Ebene_1">
	<g>
		<circle class="st5" cx="154.4" cy="154.8" r="77.2"/>
		<path class="st3" d="M214.6,192.7c-0.9,1.8-2.7,3.1-4.9,3.1c-3,0-5.5-2.5-5.5-5.5c0-3,2.5-5.5,5.5-5.5c2.2,0,4,1.3,4.9,3.1h9.4
			c1.5-3.1,2.8-6.2,3.8-9.4h-14.2c-0.9,1.8-2.7,3.1-4.9,3.1c-3,0-5.5-2.5-5.5-5.5c0-3,2.5-5.5,5.5-5.5c2.2,0,4,1.3,4.9,3.1h15.5
			c0.8-3.1,1.4-6.2,1.8-9.4h-23.6c-0.9,1.8-2.7,3.1-4.9,3.1c-3,0-5.5-2.5-5.5-5.5c0-3,2.5-5.5,5.5-5.5c2.2,0,4,1.3,4.9,3.1h24
			c0.1-1.6,0.2-3.2,0.2-4.9c0-1.5-0.1-3.1-0.2-4.6h-46c-0.9,1.8-2.7,3.1-4.9,3.1c-3,0-5.5-2.5-5.5-5.5c0-3,2.5-5.5,5.5-5.5
			c2.2,0,4,1.3,4.9,3.1H231c-0.4-3.2-1-6.4-1.8-9.4h-26.6c-0.9,1.8-2.7,3.1-4.9,3.1c-3,0-5.5-2.5-5.5-5.5s2.5-5.5,5.5-5.5
			c2.2,0,4,1.3,4.9,3.1h25.3c-1-3.3-2.3-6.4-3.8-9.4h-31c-0.9,1.8-2.7,3.1-4.9,3.1c-3,0-5.5-2.5-5.5-5.5c0-3,2.5-5.5,5.5-5.5
			c2.2,0,4,1.3,4.9,3.1h28.6c-1.9-3.3-4-6.5-6.3-9.4h-12.9c-0.9,1.8-2.7,3.1-4.9,3.1c-3,0-5.5-2.5-5.5-5.5c0-3,2.5-5.5,5.5-5.5
			c2.2,0,4,1.3,4.9,3.1h8.9c-14.1-15.6-34.5-25.4-57.1-25.4c-19.5,0-37.2,7.2-50.7,19.1H144c0.9-1.8,2.7-3.1,4.9-3.1
			c3,0,5.5,2.5,5.5,5.5c0,3-2.5,5.5-5.5,5.5c-2.2,0-4-1.3-4.9-3.1H98.7c-3.3,3.4-6.2,7.1-8.8,11H133c0.9-1.8,2.7-3.1,4.9-3.1
			c3,0,5.5,2.5,5.5,5.5c0,3-2.5,5.5-5.5,5.5c-2.2,0-4-1.3-4.9-3.1H87c-1.4,2.5-2.7,5.2-3.9,7.9h37.2c0.9-1.8,2.7-3.1,4.9-3.1
			c3,0,5.5,2.5,5.5,5.5c0,3-2.5,5.5-5.5,5.5c-2.2,0-4-1.3-4.9-3.1h-39c-1.1,3.1-2,6.2-2.7,9.4h18c0.9-1.8,2.7-3.1,4.9-3.1
			c3,0,5.5,2.5,5.5,5.5s-2.5,5.5-5.5,5.5c-2.2,0-4-1.3-4.9-3.1H78c-0.4,3.1-0.7,6.2-0.8,9.4h35.3c0.9-1.8,2.7-3.1,4.9-3.1
			c3,0,5.5,2.5,5.5,5.5c0,3-2.5,5.5-5.5,5.5c-2.2,0-4-1.3-4.9-3.1H77.4c0.1,3.2,0.5,6.3,1,9.4h62.5c0.9-1.8,2.7-3.1,4.9-3.1
			c3,0,5.5,2.5,5.5,5.5c0,3-2.5,5.5-5.5,5.5c-2.2,0-4-1.3-4.9-3.1H79.2c0.7,3.2,1.7,6.4,2.9,9.4h71.3c0.9-1.8,2.7-3.1,4.9-3.1
			c3,0,5.5,2.5,5.5,5.5s-2.5,5.5-5.5,5.5c-2.2,0-4-1.3-4.9-3.1H84c1.5,3.3,3.2,6.4,5.1,9.4H144c0.9-1.8,2.7-3.1,4.9-3.1
			c3,0,5.5,2.5,5.5,5.5s-2.5,5.5-5.5,5.5c-2.2,0-4-1.3-4.9-3.1H92.3c2.5,3.4,5.2,6.5,8.2,9.4H133c0.9-1.8,2.7-3.1,4.9-3.1
			c3,0,5.5,2.5,5.5,5.5c0,3-2.5,5.5-5.5,5.5c-2.2,0-4-1.3-4.9-3.1h-27.2C119,225.5,136,232,154.4,232c28.8,0,54-15.9,67.2-39.3
			H214.6z"/>
	</g>
</g>
<g id="Ebene_3" class="st0">
	<circle class="st7" cx="309.6" cy="154.8" r="77.2"/>
	<circle class="st7" cx="154.4" cy="309.2" r="77.2"/>
	<circle class="st7" cx="0" cy="154.8" r="77.2"/>
	<circle class="st7" cx="154.4" cy="0.4" r="77.2"/>
</g>
</svg>
