<?xml version="1.0" encoding="utf-8"?>
<!-- Generator: Adobe Illustrator 19.1.0, SVG Export Plug-In . SVG Version: 6.00 Build 0)  -->
<svg version="1.1" xmlns="http://www.w3.org/2000/svg" xmlns:xlink="http://www.w3.org/1999/xlink" x="0px" y="0px"
	 viewBox="0 0 309.6 309.6" style="enable-background:new 0 0 309.6 309.6;" xml:space="preserve">
<style type="text/css">
	.st0{display:none;}
	.st1{display:inline;}
	.st2{fill:none;}
	.st3{fill:#FFFFFF;}
	.st4{fill:#E3000B;}
	.st5{display:none;fill:#FFFFFF;}
	.st6{fill:#565655;}
	.st7{display:inline;opacity:0.75;fill:#F18C8C;}
	.st8{display:inline;opacity:0.75;}
	.st9{fill:none;stroke:#F18C8C;stroke-width:3;stroke-miterlimit:10;}
	.st10{fill:none;stroke:#F18C8C;stroke-width:3;stroke-miterlimit:10;stroke-dasharray:7.0612,7.0612;}
	.st11{fill:none;stroke:#F18C8C;stroke-width:3;stroke-miterlimit:10;stroke-dasharray:6.9542,6.9542;}
	.st12{fill:none;stroke:#F18C8C;stroke-width:3;stroke-miterlimit:10;stroke-dasharray:7.0597,7.0597;}
</style>
<g id="Ebene_2" class="st0">
	<rect x="-53.9" y="401.7" class="st1" width="841.9" height="332.1"/>
</g>
<g id="Ebene_1">
	<rect x="726.6" width="309.6" height="309.6"/>
	<g>
		<rect x="256.2" y="541.4" class="st2" width="399.4" height="58.7"/>
		<path class="st3" d="M292.9,563.8c0-5.5-4.4-9.4-9.3-9.4c-5.8,0-11.3,4.8-11.3,11.3v13.9c0,1.3-0.8,2.1-2.2,2.1s-2.3-0.8-2.3-2.1
			v-26.9c0-2.8,4.3-2.8,4.3,0.1v3.7c2.2-4.4,6.8-6.2,11.5-6.2c7,0,13.6,4.8,13.6,13.4v15.9c0,1.3-0.8,2.1-2.2,2.1
			c-1.3,0-2.2-0.8-2.2-2.1V563.8z"/>
		<path class="st3" d="M307.7,576.6c-2.7-3.2-3.8-7-3.7-11.5c0.6-6.7,4.5-12.2,11.1-14.1c1.4-0.4,3.1-0.5,4.6-0.5
			c1.4,0,2.9,0.1,4.4,0.5c6.5,1.9,10.6,7.4,11.2,14.1c0.2,4.5-1,8.3-3.6,11.5c-2.9,3.5-7.3,5.4-12,5.4
			C314.9,582,310.7,580.1,307.7,576.6z M319.7,554.5c-1.1,0-2.3,0.2-3.2,0.4c-5,1.3-8,6-8,11.4c0,2.7,0.8,5.5,2.6,7.6
			c2.1,2.5,5.3,4,8.6,4c3.2,0,6.5-1.6,8.6-4c1.7-2,2.6-4.9,2.6-7.5c0-5.5-2.9-10.2-8-11.5C322,554.7,320.8,554.5,319.7,554.5z"/>
		<path class="st3" d="M345,573.9c0.6,2.7,5.3,4.1,9.7,4.1c2.9,0,9.2-1.3,9.2-5.5c0-3.8-4.6-4-9.4-4.4c-6.5-0.6-13.4-1.1-13.4-8.5
			c0-6.4,7.3-9.2,13.1-9.2c4.6,0,11,0.8,13.1,6.2c0.8,2.7-3.3,3.8-4.1,1.6c-1.3-3.5-6.4-3.7-9.1-3.7c-3.5,0-8.7,1.5-8.7,5.2
			c0,3.8,4.4,3.8,9.2,4.1c6.6,0.6,13.6,1.2,13.6,8.7c0,7.6-8.6,9.4-13.6,9.4s-12.7-1.3-13.9-7.3C340.1,572.1,344.4,570.9,345,573.9z
			"/>
		<path class="st3" d="M388.4,550.9c2.7,0,2.7,3.8,0,3.8h-6.5v16.2c0,3.4,0.5,7,4.6,7c0.9,0,2.2-0.3,2.8-0.7
			c2.5-1.4,4.5,2.1,1.8,3.6c-1.5,0.8-3,1-4.6,1c-7.2,0-8.9-5.3-8.9-11v-16.2h-4c-2.8,0-2.6-3.8,0-3.8h4v-7c0-2.9,4.3-2.8,4.3,0v7
			H388.4z"/>
		<path class="st3" d="M402.4,555.9c1.9-4,5.5-5.1,8.9-5.1c1.4,0,2.3,0.7,2.3,2.1c0,1.3-0.9,2-2.3,2c-6.2,0-8.8,4.9-8.8,11v13.6
			c0,1.3-1,2.1-2.2,2.1c-1.3,0-2.2-0.8-2.2-2.1v-26.6c0-2.6,4.3-2.9,4.3,0V555.9z"/>
		<path class="st3" d="M425.9,551.7c2-0.9,4.1-1.2,6.4-1.1c3.4,0.1,7.3,1.1,9.5,4.7v-2.3c0-1.3,0.8-2.2,2.2-2.2
			c1.3,0,2.2,0.9,2.2,2.2v26.6c0,1.3-0.9,2.2-2.2,2.2c-1.4,0-2.2-0.8-2.2-2.2v-2.9c-1.7,3.5-6.2,5.5-9.7,5.5c-2.9,0-6.1-0.8-8.6-2.6
			c-4.6-3.1-6.9-8.2-6.7-14.1C416.8,559.4,420.2,553.8,425.9,551.7L425.9,551.7z M441.8,568.6v-4.7c0-5.9-4.1-9-9.5-9.2
			c-4.3-0.1-8.6,2.2-10.3,6.4c-0.5,1.3-0.8,2.9-0.9,4.4c-0.1,3.9,1.1,7.5,4.4,10.2c1.8,1.4,4,2.1,6.2,2.3
			C437.1,578,441.5,574.6,441.8,568.6z"/>
		<path class="st3" d="M469.1,550.5c4,0,7.9,1.7,9.7,4.9v-11.9c0-2.8,4.4-2.8,4.4,0v36.2c0,1.3-0.8,2.1-2.2,2.1s-2-0.8-2-2.1v-2.8
			c-2,3.7-6.2,5.3-9.8,5.3c-1.9,0-3.9-0.4-5.8-1.1l0.1,0.1c-6.5-2.7-9.8-8.6-9.7-15.6C454,556.9,460.1,550.5,469.1,550.5z
			 M478.8,568.6v-4.7c0-5.3-4.1-9-9.5-9.2c-4.3,0-8.5,2.3-10.3,6.4c-0.5,1.3-0.8,2.9-0.9,4.4c-0.1,3.9,1.2,7.5,4.4,10.2
			c1.7,1.4,3.9,2.1,6.2,2.3C474.2,578,478.8,574.5,478.8,568.6z"/>
		<path class="st3" d="M499.8,551.7c2-0.9,4.1-1.2,6.4-1.1c3.4,0.1,7.3,1.1,9.5,4.7v-2.3c0-1.3,0.8-2.2,2.2-2.2
			c1.3,0,2.2,0.9,2.2,2.2v26.6c0,1.3-0.9,2.2-2.2,2.2c-1.4,0-2.2-0.8-2.2-2.2v-2.9c-1.7,3.5-6.2,5.5-9.7,5.5c-2.9,0-6.1-0.8-8.6-2.6
			c-4.6-3.1-6.9-8.2-6.7-14.1C490.8,559.4,494.1,553.8,499.8,551.7L499.8,551.7z M515.7,568.6v-4.7c0-5.9-4.1-9-9.5-9.2
			c-4.3-0.1-8.6,2.2-10.3,6.4c-0.5,1.3-0.8,2.9-0.9,4.4c-0.1,3.9,1.1,7.5,4.4,10.2c1.8,1.4,4,2.1,6.2,2.3
			C511.1,578,515.4,574.6,515.7,568.6z"/>
		<path class="st3" d="M579.9,563.8c-0.1-5.2-4.3-8.9-9.3-8.9c-6.3,0-11.3,4.7-11.3,11.6v13.2c0,1.3-0.9,2.1-2.2,2.1
			c-1.3,0-2.2-0.8-2.2-2.1v-14.9c0-3.4-1.4-6.7-4.1-8.5c-1.6-1-3.3-1.4-5.2-1.4c-5.9,0-11.2,4.5-11.2,11.2v13.5c0,2.8-4.4,2.7-4.4,0
			v-26.8c0-1.1,1-2.1,2.2-2.1c1.3,0,2.1,1,2.1,2.1v4.1c2.4-4.3,6.7-6.2,11.3-6.2c5.2,0,10.4,2.6,12.2,7.9c2.2-5.3,7.4-7.9,12.7-7.9
			c6.9,0,13.9,4.6,13.9,12.8v16.1c0,1.3-0.9,2.1-2.2,2.1c-1.4,0-2.2-0.8-2.2-2.1V563.8z"/>
		<path class="st4" d="M593.7,544c0-3,4.5-2.9,4.5,0v35.9c0,2.8-4.5,2.9-4.5,0V544z"/>
		<path class="st4" d="M636.3,577.8c-3.3,2.6-7.6,4.3-11.9,4.3c-10.5,0-19.2-7.6-19.2-20.4c0-9.6,6.1-17.5,15.7-19
			c2.1-0.2,4.1-0.2,6.4,0c9.4,1.4,16.3,9.6,16.3,19c-0.1,5.3-1.4,10-4.3,13.1l3.4,3.5c2,2-1,4.9-3.1,2.9L636.3,577.8z M636.2,571.6
			c2.2-2.7,2.9-5.9,2.9-9.8c0-7.7-5.2-13.9-12.5-15.1c-1.7-0.2-3.4-0.2-5.2,0c-7.3,1.1-11.9,7.5-11.9,15.1c0,9.6,6.7,16.2,14.8,16.2
			c3.4,0,6.5-1.2,9.1-3.4l-3.4-3.4c-2.1-2.1,1.1-5,3.1-2.8L636.2,571.6z"/>
	</g>
	<g>
		<circle class="st3" cx="160.6" cy="566.4" r="77.2"/>
		<path class="st4" d="M220.8,604.3c-0.9,1.8-2.7,3.1-4.9,3.1c-3,0-5.5-2.5-5.5-5.5c0-3,2.5-5.5,5.5-5.5c2.2,0,4,1.3,4.9,3.1h9.4
			c1.5-3.1,2.8-6.2,3.8-9.4h-14.2c-0.9,1.8-2.7,3.1-4.9,3.1c-3,0-5.5-2.5-5.5-5.5c0-3,2.5-5.5,5.5-5.5c2.2,0,4,1.3,4.9,3.1h15.5
			c0.8-3.1,1.4-6.2,1.8-9.4h-23.6c-0.9,1.8-2.7,3.1-4.9,3.1c-3,0-5.5-2.5-5.5-5.5c0-3,2.5-5.5,5.5-5.5c2.2,0,4,1.3,4.9,3.1h24
			c0.1-1.6,0.2-3.2,0.2-4.9c0-1.5-0.1-3.1-0.2-4.6h-46c-0.9,1.8-2.7,3.1-4.9,3.1c-3,0-5.5-2.5-5.5-5.5s2.5-5.5,5.5-5.5
			c2.2,0,4,1.3,4.9,3.1h45.6c-0.4-3.2-1-6.4-1.8-9.4h-26.6c-0.9,1.8-2.7,3.1-4.9,3.1c-3,0-5.5-2.5-5.5-5.5c0-3,2.5-5.5,5.5-5.5
			c2.2,0,4,1.3,4.9,3.1h25.3c-1-3.3-2.3-6.4-3.8-9.4h-31c-0.9,1.8-2.7,3.1-4.9,3.1c-3,0-5.5-2.5-5.5-5.5c0-3,2.5-5.5,5.5-5.5
			c2.2,0,4,1.3,4.9,3.1h28.6c-1.9-3.3-4-6.5-6.3-9.4h-12.9c-0.9,1.8-2.7,3.1-4.9,3.1c-3,0-5.5-2.5-5.5-5.5c0-3,2.5-5.5,5.5-5.5
			c2.2,0,4,1.3,4.9,3.1h8.9c-14.1-15.6-34.5-25.4-57.1-25.4c-19.5,0-37.2,7.2-50.7,19.1h40.4c0.9-1.8,2.7-3.1,4.9-3.1
			c3,0,5.5,2.5,5.5,5.5c0,3-2.5,5.5-5.5,5.5c-2.2,0-4-1.3-4.9-3.1h-45.3c-3.3,3.4-6.2,7.1-8.8,11h43.1c0.9-1.8,2.7-3.1,4.9-3.1
			c3,0,5.5,2.5,5.5,5.5s-2.5,5.5-5.5,5.5c-2.2,0-4-1.3-4.9-3.1h-46c-1.4,2.5-2.7,5.2-3.9,7.9h37.2c0.9-1.8,2.7-3.1,4.9-3.1
			c3,0,5.5,2.5,5.5,5.5c0,3-2.5,5.5-5.5,5.5c-2.2,0-4-1.3-4.9-3.1h-39c-1.1,3.1-2,6.2-2.7,9.4h18c0.9-1.8,2.7-3.1,4.9-3.1
			c3,0,5.5,2.5,5.5,5.5s-2.5,5.5-5.5,5.5c-2.2,0-4-1.3-4.9-3.1H84.2c-0.4,3.1-0.7,6.2-0.8,9.4h35.3c0.9-1.8,2.7-3.1,4.9-3.1
			c3,0,5.5,2.5,5.5,5.5c0,3-2.5,5.5-5.5,5.5c-2.2,0-4-1.3-4.9-3.1H83.5c0.1,3.2,0.5,6.3,1,9.4H147c0.9-1.8,2.7-3.1,4.9-3.1
			c3,0,5.5,2.5,5.5,5.5c0,3-2.5,5.5-5.5,5.5c-2.2,0-4-1.3-4.9-3.1H85.4c0.7,3.2,1.7,6.4,2.9,9.4h71.3c0.9-1.8,2.7-3.1,4.9-3.1
			c3,0,5.5,2.5,5.5,5.5c0,3-2.5,5.5-5.5,5.5c-2.2,0-4-1.3-4.9-3.1H90.2c1.5,3.3,3.2,6.4,5.1,9.4h54.9c0.9-1.8,2.7-3.1,4.9-3.1
			c3,0,5.5,2.5,5.5,5.5s-2.5,5.5-5.5,5.5c-2.2,0-4-1.3-4.9-3.1H98.5c2.5,3.4,5.2,6.5,8.2,9.4h32.5c0.9-1.8,2.7-3.1,4.9-3.1
			c3,0,5.5,2.5,5.5,5.5c0,3-2.5,5.5-5.5,5.5c-2.2,0-4-1.3-4.9-3.1h-27.2c13.3,10.8,30.2,17.3,48.6,17.3c28.8,0,54-15.9,67.2-39.3
			H220.8z"/>
	</g>
	<g>
		<rect x="256.2" y="995.4" class="st2" width="399.4" height="58.7"/>
		<path class="st3" d="M292.9,1017.8c0-5.5-4.4-9.4-9.3-9.4c-5.8,0-11.3,4.8-11.3,11.3v13.9c0,1.3-0.8,2.1-2.2,2.1s-2.3-0.8-2.3-2.1
			v-26.9c0-2.8,4.3-2.8,4.3,0.1v3.7c2.2-4.4,6.8-6.2,11.5-6.2c7,0,13.6,4.8,13.6,13.4v15.9c0,1.3-0.8,2.1-2.2,2.1
			c-1.3,0-2.2-0.8-2.2-2.1V1017.8z"/>
		<path class="st3" d="M307.7,1030.6c-2.7-3.2-3.8-7-3.7-11.5c0.6-6.7,4.5-12.2,11.1-14.1c1.4-0.4,3.1-0.5,4.6-0.5
			c1.4,0,2.9,0.1,4.4,0.5c6.5,1.9,10.6,7.4,11.2,14.1c0.2,4.5-1,8.3-3.6,11.5c-2.9,3.5-7.3,5.4-12,5.4
			C314.9,1036,310.7,1034.1,307.7,1030.6z M319.7,1008.5c-1.1,0-2.3,0.2-3.2,0.4c-5,1.3-8,6-8,11.4c0,2.7,0.8,5.5,2.6,7.6
			c2.1,2.5,5.3,4,8.6,4c3.2,0,6.5-1.6,8.6-4c1.7-2,2.6-4.9,2.6-7.5c0-5.5-2.9-10.2-8-11.5C322,1008.7,320.8,1008.5,319.7,1008.5z"/>
		<path class="st3" d="M345,1027.9c0.6,2.7,5.3,4.1,9.7,4.1c2.9,0,9.2-1.3,9.2-5.5c0-3.8-4.6-4-9.4-4.4c-6.5-0.6-13.4-1.1-13.4-8.5
			c0-6.4,7.3-9.2,13.1-9.2c4.6,0,11,0.8,13.1,6.2c0.8,2.7-3.3,3.8-4.1,1.6c-1.3-3.5-6.4-3.7-9.1-3.7c-3.5,0-8.7,1.5-8.7,5.2
			c0,3.8,4.4,3.8,9.2,4.1c6.6,0.6,13.6,1.2,13.6,8.7c0,7.6-8.6,9.4-13.6,9.4s-12.7-1.3-13.9-7.3
			C340.1,1026.1,344.4,1024.9,345,1027.9z"/>
		<path class="st3" d="M388.4,1004.9c2.7,0,2.7,3.8,0,3.8h-6.5v16.2c0,3.4,0.5,7,4.6,7c0.9,0,2.2-0.3,2.8-0.7
			c2.5-1.4,4.5,2.1,1.8,3.6c-1.5,0.8-3,1-4.6,1c-7.2,0-8.9-5.3-8.9-11v-16.2h-4c-2.8,0-2.6-3.8,0-3.8h4v-7c0-2.9,4.3-2.8,4.3,0v7
			H388.4z"/>
		<path class="st3" d="M402.4,1009.9c1.9-4,5.5-5.1,8.9-5.1c1.4,0,2.3,0.7,2.3,2.1c0,1.3-0.9,2-2.3,2c-6.2,0-8.8,4.9-8.8,11v13.6
			c0,1.3-1,2.1-2.2,2.1c-1.3,0-2.2-0.8-2.2-2.1v-26.6c0-2.6,4.3-2.9,4.3,0V1009.9z"/>
		<path class="st3" d="M425.9,1005.7c2-0.9,4.1-1.2,6.4-1.1c3.4,0.1,7.3,1.1,9.5,4.7v-2.3c0-1.3,0.8-2.2,2.2-2.2
			c1.3,0,2.2,0.9,2.2,2.2v26.6c0,1.3-0.9,2.2-2.2,2.2c-1.4,0-2.2-0.8-2.2-2.2v-2.9c-1.7,3.5-6.2,5.5-9.7,5.5c-2.9,0-6.1-0.8-8.6-2.6
			c-4.6-3.1-6.9-8.2-6.7-14.1C416.8,1013.4,420.2,1007.8,425.9,1005.7L425.9,1005.7z M441.8,1022.6v-4.7c0-5.9-4.1-9-9.5-9.2
			c-4.3-0.1-8.6,2.2-10.3,6.4c-0.5,1.3-0.8,2.9-0.9,4.4c-0.1,3.9,1.1,7.5,4.4,10.2c1.8,1.4,4,2.1,6.2,2.3
			C437.1,1032,441.5,1028.6,441.8,1022.6z"/>
		<path class="st3" d="M469.1,1004.5c4,0,7.9,1.7,9.7,4.9v-11.9c0-2.8,4.4-2.8,4.4,0v36.2c0,1.3-0.8,2.1-2.2,2.1s-2-0.8-2-2.1v-2.8
			c-2,3.7-6.2,5.3-9.8,5.3c-1.9,0-3.9-0.4-5.8-1.1l0.1,0.1c-6.5-2.7-9.8-8.6-9.7-15.6C454,1010.9,460.1,1004.5,469.1,1004.5z
			 M478.8,1022.6v-4.7c0-5.3-4.1-9-9.5-9.2c-4.3,0-8.5,2.3-10.3,6.4c-0.5,1.3-0.8,2.9-0.9,4.4c-0.1,3.9,1.2,7.5,4.4,10.2
			c1.7,1.4,3.9,2.1,6.2,2.3C474.2,1032,478.8,1028.5,478.8,1022.6z"/>
		<path class="st3" d="M499.8,1005.7c2-0.9,4.1-1.2,6.4-1.1c3.4,0.1,7.3,1.1,9.5,4.7v-2.3c0-1.3,0.8-2.2,2.2-2.2
			c1.3,0,2.2,0.9,2.2,2.2v26.6c0,1.3-0.9,2.2-2.2,2.2c-1.4,0-2.2-0.8-2.2-2.2v-2.9c-1.7,3.5-6.2,5.5-9.7,5.5c-2.9,0-6.1-0.8-8.6-2.6
			c-4.6-3.1-6.9-8.2-6.7-14.1C490.8,1013.4,494.1,1007.8,499.8,1005.7L499.8,1005.7z M515.7,1022.6v-4.7c0-5.9-4.1-9-9.5-9.2
			c-4.3-0.1-8.6,2.2-10.3,6.4c-0.5,1.3-0.8,2.9-0.9,4.4c-0.1,3.9,1.1,7.5,4.4,10.2c1.8,1.4,4,2.1,6.2,2.3
			C511.1,1032,515.4,1028.6,515.7,1022.6z"/>
		<path class="st3" d="M579.9,1017.8c-0.1-5.2-4.3-8.9-9.3-8.9c-6.3,0-11.3,4.7-11.3,11.6v13.2c0,1.3-0.9,2.1-2.2,2.1
			c-1.3,0-2.2-0.8-2.2-2.1v-14.9c0-3.4-1.4-6.7-4.1-8.5c-1.6-1-3.3-1.4-5.2-1.4c-5.9,0-11.2,4.5-11.2,11.2v13.5c0,2.8-4.4,2.7-4.4,0
			v-26.8c0-1.1,1-2.1,2.2-2.1c1.3,0,2.1,1,2.1,2.1v4.1c2.4-4.3,6.7-6.2,11.3-6.2c5.2,0,10.4,2.6,12.2,7.9c2.2-5.3,7.4-7.9,12.7-7.9
			c6.9,0,13.9,4.6,13.9,12.8v16.1c0,1.3-0.9,2.1-2.2,2.1c-1.4,0-2.2-0.8-2.2-2.1V1017.8z"/>
		<path class="st4" d="M593.7,998c0-3,4.5-2.9,4.5,0v35.9c0,2.8-4.5,2.9-4.5,0V998z"/>
		<path class="st4" d="M636.3,1031.8c-3.3,2.6-7.6,4.3-11.9,4.3c-10.5,0-19.2-7.6-19.2-20.4c0-9.6,6.1-17.5,15.7-19
			c2.1-0.2,4.1-0.2,6.4,0c9.4,1.4,16.3,9.6,16.3,19c-0.1,5.3-1.4,10-4.3,13.1l3.4,3.5c2,2-1,4.9-3.1,2.9L636.3,1031.8z
			 M636.2,1025.6c2.2-2.7,2.9-5.9,2.9-9.8c0-7.7-5.2-13.9-12.5-15.1c-1.7-0.2-3.4-0.2-5.2,0c-7.3,1.1-11.9,7.5-11.9,15.1
			c0,9.6,6.7,16.2,14.8,16.2c3.4,0,6.5-1.2,9.1-3.4l-3.4-3.4c-2.1-2.1,1.1-5,3.1-2.8L636.2,1025.6z"/>
	</g>
	<g>
		<circle class="st3" cx="160.6" cy="1020.4" r="77.2"/>
		<path class="st4" d="M220.8,1058.3c-0.9,1.8-2.7,3.1-4.9,3.1c-3,0-5.5-2.5-5.5-5.5c0-3,2.5-5.5,5.5-5.5c2.2,0,4,1.3,4.9,3.1h9.4
			c1.5-3.1,2.8-6.2,3.8-9.4h-14.2c-0.9,1.8-2.7,3.1-4.9,3.1c-3,0-5.5-2.5-5.5-5.5c0-3,2.5-5.5,5.5-5.5c2.2,0,4,1.3,4.9,3.1h15.5
			c0.8-3.1,1.4-6.2,1.8-9.4h-23.6c-0.9,1.8-2.7,3.1-4.9,3.1c-3,0-5.5-2.5-5.5-5.5s2.5-5.5,5.5-5.5c2.2,0,4,1.3,4.9,3.1h24
			c0.1-1.6,0.2-3.2,0.2-4.9c0-1.5-0.1-3.1-0.2-4.6h-46c-0.9,1.8-2.7,3.1-4.9,3.1c-3,0-5.5-2.5-5.5-5.5s2.5-5.5,5.5-5.5
			c2.2,0,4,1.3,4.9,3.1h45.6c-0.4-3.2-1-6.4-1.8-9.4h-26.6c-0.9,1.8-2.7,3.1-4.9,3.1c-3,0-5.5-2.5-5.5-5.5c0-3,2.5-5.5,5.5-5.5
			c2.2,0,4,1.3,4.9,3.1h25.3c-1-3.3-2.3-6.4-3.8-9.4h-31c-0.9,1.8-2.7,3.1-4.9,3.1c-3,0-5.5-2.5-5.5-5.5c0-3,2.5-5.5,5.5-5.5
			c2.2,0,4,1.3,4.9,3.1h28.6c-1.9-3.3-4-6.5-6.3-9.4h-12.9c-0.9,1.8-2.7,3.1-4.9,3.1c-3,0-5.5-2.5-5.5-5.5c0-3,2.5-5.5,5.5-5.5
			c2.2,0,4,1.3,4.9,3.1h8.9c-14.1-15.6-34.5-25.4-57.1-25.4c-19.5,0-37.2,7.2-50.7,19.1h40.4c0.9-1.8,2.7-3.1,4.9-3.1
			c3,0,5.5,2.5,5.5,5.5c0,3-2.5,5.5-5.5,5.5c-2.2,0-4-1.3-4.9-3.1h-45.3c-3.3,3.4-6.2,7.1-8.8,11h43.1c0.9-1.8,2.7-3.1,4.9-3.1
			c3,0,5.5,2.5,5.5,5.5s-2.5,5.5-5.5,5.5c-2.2,0-4-1.3-4.9-3.1h-46c-1.4,2.5-2.7,5.2-3.9,7.9h37.2c0.9-1.8,2.7-3.1,4.9-3.1
			c3,0,5.5,2.5,5.5,5.5c0,3-2.5,5.5-5.5,5.5c-2.2,0-4-1.3-4.9-3.1h-39c-1.1,3.1-2,6.2-2.7,9.4h18c0.9-1.8,2.7-3.1,4.9-3.1
			c3,0,5.5,2.5,5.5,5.5s-2.5,5.5-5.5,5.5c-2.2,0-4-1.3-4.9-3.1H84.2c-0.4,3.1-0.7,6.2-0.8,9.4h35.3c0.9-1.8,2.7-3.1,4.9-3.1
			c3,0,5.5,2.5,5.5,5.5c0,3-2.5,5.5-5.5,5.5c-2.2,0-4-1.3-4.9-3.1H83.5c0.1,3.2,0.5,6.3,1,9.4H147c0.9-1.8,2.7-3.1,4.9-3.1
			c3,0,5.5,2.5,5.5,5.5c0,3-2.5,5.5-5.5,5.5c-2.2,0-4-1.3-4.9-3.1H85.4c0.7,3.2,1.7,6.4,2.9,9.4h71.3c0.9-1.8,2.7-3.1,4.9-3.1
			c3,0,5.5,2.5,5.5,5.5s-2.5,5.5-5.5,5.5c-2.2,0-4-1.3-4.9-3.1H90.2c1.5,3.3,3.2,6.4,5.1,9.4h54.9c0.9-1.8,2.7-3.1,4.9-3.1
			c3,0,5.5,2.5,5.5,5.5s-2.5,5.5-5.5,5.5c-2.2,0-4-1.3-4.9-3.1H98.5c2.5,3.4,5.2,6.5,8.2,9.4h32.5c0.9-1.8,2.7-3.1,4.9-3.1
			c3,0,5.5,2.5,5.5,5.5c0,3-2.5,5.5-5.5,5.5c-2.2,0-4-1.3-4.9-3.1h-27.2c13.3,10.8,30.2,17.3,48.6,17.3c28.8,0,54-15.9,67.2-39.3
			H220.8z"/>
	</g>
	<g>
		<rect x="-669" y="541.4" class="st2" width="399.4" height="58.7"/>
		<path d="M-632.3,563.8c0-5.5-4.4-9.4-9.3-9.4c-5.8,0-11.3,4.8-11.3,11.3v13.9c0,1.3-0.8,2.1-2.2,2.1s-2.3-0.8-2.3-2.1v-26.9
			c0-2.8,4.3-2.8,4.3,0.1v3.7c2.2-4.4,6.8-6.2,11.5-6.2c7,0,13.6,4.8,13.6,13.4v15.9c0,1.3-0.8,2.1-2.2,2.1c-1.3,0-2.2-0.8-2.2-2.1
			V563.8z"/>
		<path d="M-617.5,576.6c-2.7-3.2-3.8-7-3.7-11.5c0.6-6.7,4.5-12.2,11.1-14.1c1.4-0.4,3.1-0.5,4.6-0.5c1.4,0,2.9,0.1,4.4,0.5
			c6.5,1.9,10.6,7.4,11.2,14.1c0.2,4.5-1,8.3-3.6,11.5c-2.9,3.5-7.3,5.4-12,5.4C-610.3,582-614.5,580.1-617.5,576.6z M-605.5,554.5
			c-1.1,0-2.3,0.2-3.2,0.4c-5,1.3-8,6-8,11.4c0,2.7,0.8,5.5,2.6,7.6c2.1,2.5,5.3,4,8.6,4c3.2,0,6.5-1.6,8.6-4c1.7-2,2.6-4.9,2.6-7.5
			c0-5.5-2.9-10.2-8-11.5C-603.2,554.7-604.4,554.5-605.5,554.5z"/>
		<path d="M-580.2,573.9c0.6,2.7,5.3,4.1,9.7,4.1c2.9,0,9.2-1.3,9.2-5.5c0-3.8-4.6-4-9.4-4.4c-6.5-0.6-13.4-1.1-13.4-8.5
			c0-6.4,7.3-9.2,13.1-9.2c4.6,0,11,0.8,13.1,6.2c0.8,2.7-3.3,3.8-4.1,1.6c-1.3-3.5-6.4-3.7-9.1-3.7c-3.5,0-8.7,1.5-8.7,5.2
			c0,3.8,4.4,3.8,9.2,4.1c6.6,0.6,13.6,1.2,13.6,8.7c0,7.6-8.6,9.4-13.6,9.4c-5,0-12.7-1.3-13.9-7.3
			C-585.1,572.1-580.8,570.9-580.2,573.9z"/>
		<path d="M-536.8,550.9c2.7,0,2.7,3.8,0,3.8h-6.5v16.2c0,3.4,0.5,7,4.6,7c0.9,0,2.2-0.3,2.8-0.7c2.5-1.4,4.5,2.1,1.8,3.6
			c-1.5,0.8-3,1-4.6,1c-7.2,0-8.9-5.3-8.9-11v-16.2h-4c-2.8,0-2.6-3.8,0-3.8h4v-7c0-2.9,4.3-2.8,4.3,0v7H-536.8z"/>
		<path d="M-522.8,555.9c1.9-4,5.5-5.1,8.9-5.1c1.4,0,2.3,0.7,2.3,2.1c0,1.3-0.9,2-2.3,2c-6.2,0-8.8,4.9-8.8,11v13.6
			c0,1.3-1,2.1-2.2,2.1c-1.3,0-2.2-0.8-2.2-2.1v-26.6c0-2.6,4.3-2.9,4.3,0V555.9z"/>
		<path d="M-499.3,551.7c2-0.9,4.1-1.2,6.4-1.1c3.4,0.1,7.3,1.1,9.5,4.7v-2.3c0-1.3,0.8-2.2,2.2-2.2c1.3,0,2.2,0.9,2.2,2.2v26.6
			c0,1.3-0.9,2.2-2.2,2.2c-1.4,0-2.2-0.8-2.2-2.2v-2.9c-1.7,3.5-6.2,5.5-9.7,5.5c-2.9,0-6.1-0.8-8.6-2.6c-4.6-3.1-6.9-8.2-6.7-14.1
			C-508.4,559.4-505,553.8-499.3,551.7L-499.3,551.7z M-483.4,568.6v-4.7c0-5.9-4.1-9-9.5-9.2c-4.3-0.1-8.6,2.2-10.3,6.4
			c-0.5,1.3-0.8,2.9-0.9,4.4c-0.1,3.9,1.1,7.5,4.4,10.2c1.8,1.4,4,2.1,6.2,2.3C-488.1,578-483.7,574.6-483.4,568.6z"/>
		<path d="M-456.1,550.5c4,0,7.9,1.7,9.7,4.9v-11.9c0-2.8,4.4-2.8,4.4,0v36.2c0,1.3-0.8,2.1-2.2,2.1s-2-0.8-2-2.1v-2.8
			c-2,3.7-6.2,5.3-9.8,5.3c-1.9,0-3.9-0.4-5.8-1.1l0.1,0.1c-6.5-2.7-9.8-8.6-9.7-15.6C-471.2,556.9-465.1,550.5-456.1,550.5z
			 M-446.4,568.6v-4.7c0-5.3-4.1-9-9.5-9.2c-4.3,0-8.5,2.3-10.3,6.4c-0.5,1.3-0.8,2.9-0.9,4.4c-0.1,3.9,1.2,7.5,4.4,10.2
			c1.7,1.4,3.9,2.1,6.2,2.3C-451,578-446.4,574.5-446.4,568.6z"/>
		<path d="M-425.4,551.7c2-0.9,4.1-1.2,6.4-1.1c3.4,0.1,7.3,1.1,9.5,4.7v-2.3c0-1.3,0.8-2.2,2.2-2.2c1.3,0,2.2,0.9,2.2,2.2v26.6
			c0,1.3-0.9,2.2-2.2,2.2c-1.4,0-2.2-0.8-2.2-2.2v-2.9c-1.7,3.5-6.2,5.5-9.7,5.5c-2.9,0-6.1-0.8-8.6-2.6c-4.6-3.1-6.9-8.2-6.7-14.1
			C-434.4,559.4-431.1,553.8-425.4,551.7L-425.4,551.7z M-409.5,568.6v-4.7c0-5.9-4.1-9-9.5-9.2c-4.3-0.1-8.6,2.2-10.3,6.4
			c-0.5,1.3-0.8,2.9-0.9,4.4c-0.1,3.9,1.1,7.5,4.4,10.2c1.8,1.4,4,2.1,6.2,2.3C-414.1,578-409.8,574.6-409.5,568.6z"/>
		<path d="M-345.3,563.8c-0.1-5.2-4.3-8.9-9.3-8.9c-6.3,0-11.3,4.7-11.3,11.6v13.2c0,1.3-0.9,2.1-2.2,2.1c-1.3,0-2.2-0.8-2.2-2.1
			v-14.9c0-3.4-1.4-6.7-4.1-8.5c-1.6-1-3.3-1.4-5.2-1.4c-5.9,0-11.2,4.5-11.2,11.2v13.5c0,2.8-4.4,2.7-4.4,0v-26.8
			c0-1.1,1-2.1,2.2-2.1c1.3,0,2.1,1,2.1,2.1v4.1c2.4-4.3,6.7-6.2,11.3-6.2c5.2,0,10.4,2.6,12.2,7.9c2.2-5.3,7.4-7.9,12.7-7.9
			c6.9,0,13.9,4.6,13.9,12.8v16.1c0,1.3-0.9,2.1-2.2,2.1c-1.4,0-2.2-0.8-2.2-2.1V563.8z"/>
		<path class="st4" d="M-331.5,544c0-3,4.5-2.9,4.5,0v35.9c0,2.8-4.5,2.9-4.5,0V544z"/>
		<path class="st4" d="M-288.9,577.8c-3.3,2.6-7.6,4.3-11.9,4.3c-10.5,0-19.2-7.6-19.2-20.4c0-9.6,6.1-17.5,15.7-19
			c2.1-0.2,4.1-0.2,6.4,0c9.4,1.4,16.3,9.6,16.3,19c-0.1,5.3-1.4,10-4.3,13.1l3.4,3.5c2,2-1,4.9-3.1,2.9L-288.9,577.8z M-289,571.6
			c2.2-2.7,2.9-5.9,2.9-9.8c0-7.7-5.2-13.9-12.5-15.1c-1.7-0.2-3.4-0.2-5.2,0c-7.3,1.1-11.9,7.5-11.9,15.1c0,9.6,6.7,16.2,14.8,16.2
			c3.4,0,6.5-1.2,9.1-3.4l-3.4-3.4c-2.1-2.1,1.1-5,3.1-2.8L-289,571.6z"/>
	</g>
	<g>
		<circle class="st3" cx="-764.6" cy="566.4" r="77.2"/>
		<path class="st4" d="M-704.4,604.3c-0.9,1.8-2.7,3.1-4.9,3.1c-3,0-5.5-2.5-5.5-5.5c0-3,2.5-5.5,5.5-5.5c2.2,0,4,1.3,4.9,3.1h9.4
			c1.5-3.1,2.8-6.2,3.8-9.4h-14.2c-0.9,1.8-2.7,3.1-4.9,3.1c-3,0-5.5-2.5-5.5-5.5c0-3,2.5-5.5,5.5-5.5c2.2,0,4,1.3,4.9,3.1h15.5
			c0.8-3.1,1.4-6.2,1.8-9.4h-23.6c-0.9,1.8-2.7,3.1-4.9,3.1c-3,0-5.5-2.5-5.5-5.5c0-3,2.5-5.5,5.5-5.5c2.2,0,4,1.3,4.9,3.1h24
			c0.1-1.6,0.2-3.2,0.2-4.9c0-1.5-0.1-3.1-0.2-4.6h-46c-0.9,1.8-2.7,3.1-4.9,3.1c-3,0-5.5-2.5-5.5-5.5s2.5-5.5,5.5-5.5
			c2.2,0,4,1.3,4.9,3.1h45.6c-0.4-3.2-1-6.4-1.8-9.4h-26.6c-0.9,1.8-2.7,3.1-4.9,3.1c-3,0-5.5-2.5-5.5-5.5c0-3,2.5-5.5,5.5-5.5
			c2.2,0,4,1.3,4.9,3.1h25.3c-1-3.3-2.3-6.4-3.8-9.4h-31c-0.9,1.8-2.7,3.1-4.9,3.1c-3,0-5.5-2.5-5.5-5.5c0-3,2.5-5.5,5.5-5.5
			c2.2,0,4,1.3,4.9,3.1h28.6c-1.9-3.3-4-6.5-6.3-9.4h-12.9c-0.9,1.8-2.7,3.1-4.9,3.1c-3,0-5.5-2.5-5.5-5.5c0-3,2.5-5.5,5.5-5.5
			c2.2,0,4,1.3,4.9,3.1h8.9c-14.1-15.6-34.5-25.4-57.1-25.4c-19.5,0-37.2,7.2-50.7,19.1h40.4c0.9-1.8,2.7-3.1,4.9-3.1
			c3,0,5.5,2.5,5.5,5.5c0,3-2.5,5.5-5.5,5.5c-2.2,0-4-1.3-4.9-3.1h-45.3c-3.3,3.4-6.2,7.1-8.8,11h43.1c0.9-1.8,2.7-3.1,4.9-3.1
			c3,0,5.5,2.5,5.5,5.5s-2.5,5.5-5.5,5.5c-2.2,0-4-1.3-4.9-3.1h-46c-1.4,2.5-2.7,5.2-3.9,7.9h37.2c0.9-1.8,2.7-3.1,4.9-3.1
			c3,0,5.5,2.5,5.5,5.5c0,3-2.5,5.5-5.5,5.5c-2.2,0-4-1.3-4.9-3.1h-39c-1.1,3.1-2,6.2-2.7,9.4h18c0.9-1.8,2.7-3.1,4.9-3.1
			c3,0,5.5,2.5,5.5,5.5s-2.5,5.5-5.5,5.5c-2.2,0-4-1.3-4.9-3.1H-841c-0.4,3.1-0.7,6.2-0.8,9.4h35.3c0.9-1.8,2.7-3.1,4.9-3.1
			c3,0,5.5,2.5,5.5,5.5c0,3-2.5,5.5-5.5,5.5c-2.2,0-4-1.3-4.9-3.1h-35.2c0.1,3.2,0.5,6.3,1,9.4h62.5c0.9-1.8,2.7-3.1,4.9-3.1
			c3,0,5.5,2.5,5.5,5.5c0,3-2.5,5.5-5.5,5.5c-2.2,0-4-1.3-4.9-3.1h-61.6c0.7,3.2,1.7,6.4,2.9,9.4h71.3c0.9-1.8,2.7-3.1,4.9-3.1
			c3,0,5.5,2.5,5.5,5.5c0,3-2.5,5.5-5.5,5.5c-2.2,0-4-1.3-4.9-3.1H-835c1.5,3.3,3.2,6.4,5.1,9.4h54.9c0.9-1.8,2.7-3.1,4.9-3.1
			c3,0,5.5,2.5,5.5,5.5s-2.5,5.5-5.5,5.5c-2.2,0-4-1.3-4.9-3.1h-51.7c2.5,3.4,5.2,6.5,8.2,9.4h32.5c0.9-1.8,2.7-3.1,4.9-3.1
			c3,0,5.5,2.5,5.5,5.5c0,3-2.5,5.5-5.5,5.5c-2.2,0-4-1.3-4.9-3.1h-27.2c13.3,10.8,30.2,17.3,48.6,17.3c28.8,0,54-15.9,67.2-39.3
			H-704.4z"/>
	</g>
	<g>
		<rect x="-669" y="129.4" class="st2" width="399.4" height="58.7"/>
		<path d="M-632.3,151.8c0-5.5-4.4-9.4-9.3-9.4c-5.8,0-11.3,4.8-11.3,11.3v13.9c0,1.3-0.8,2.1-2.2,2.1s-2.3-0.8-2.3-2.1v-26.9
			c0-2.8,4.3-2.8,4.3,0.1v3.7c2.2-4.4,6.8-6.2,11.5-6.2c7,0,13.6,4.8,13.6,13.4v15.9c0,1.3-0.8,2.1-2.2,2.1c-1.3,0-2.2-0.8-2.2-2.1
			V151.8z"/>
		<path d="M-617.5,164.6c-2.7-3.2-3.8-7-3.7-11.5c0.6-6.7,4.5-12.2,11.1-14.1c1.4-0.4,3.1-0.5,4.6-0.5c1.4,0,2.9,0.1,4.4,0.5
			c6.5,1.9,10.6,7.4,11.2,14.1c0.2,4.5-1,8.3-3.6,11.5c-2.9,3.5-7.3,5.4-12,5.4C-610.3,170-614.5,168.1-617.5,164.6z M-605.5,142.5
			c-1.1,0-2.3,0.2-3.2,0.4c-5,1.3-8,6-8,11.4c0,2.7,0.8,5.5,2.6,7.6c2.1,2.5,5.3,4,8.6,4c3.2,0,6.5-1.6,8.6-4c1.7-2,2.6-4.9,2.6-7.5
			c0-5.5-2.9-10.2-8-11.5C-603.2,142.7-604.4,142.5-605.5,142.5z"/>
		<path d="M-580.2,161.9c0.6,2.7,5.3,4.1,9.7,4.1c2.9,0,9.2-1.3,9.2-5.5c0-3.8-4.6-4-9.4-4.4c-6.5-0.6-13.4-1.1-13.4-8.5
			c0-6.4,7.3-9.2,13.1-9.2c4.6,0,11,0.8,13.1,6.2c0.8,2.7-3.3,3.8-4.1,1.6c-1.3-3.5-6.4-3.7-9.1-3.7c-3.5,0-8.7,1.5-8.7,5.2
			c0,3.8,4.4,3.8,9.2,4.1c6.6,0.6,13.6,1.2,13.6,8.7c0,7.6-8.6,9.4-13.6,9.4c-5,0-12.7-1.3-13.9-7.3
			C-585.1,160.1-580.8,158.9-580.2,161.9z"/>
		<path d="M-536.8,138.9c2.7,0,2.7,3.8,0,3.8h-6.5v16.2c0,3.4,0.5,7,4.6,7c0.9,0,2.2-0.3,2.8-0.7c2.5-1.4,4.5,2.1,1.8,3.6
			c-1.5,0.8-3,1-4.6,1c-7.2,0-8.9-5.3-8.9-11v-16.2h-4c-2.8,0-2.6-3.8,0-3.8h4v-7c0-2.9,4.3-2.8,4.3,0v7H-536.8z"/>
		<path d="M-522.8,143.9c1.9-4,5.5-5.1,8.9-5.1c1.4,0,2.3,0.7,2.3,2.1c0,1.3-0.9,2-2.3,2c-6.2,0-8.8,4.9-8.8,11v13.6
			c0,1.3-1,2.1-2.2,2.1c-1.3,0-2.2-0.8-2.2-2.1v-26.6c0-2.6,4.3-2.9,4.3,0V143.9z"/>
		<path d="M-499.3,139.7c2-0.9,4.1-1.2,6.4-1.1c3.4,0.1,7.3,1.1,9.5,4.7v-2.3c0-1.3,0.8-2.2,2.2-2.2c1.3,0,2.2,0.9,2.2,2.2v26.6
			c0,1.3-0.9,2.2-2.2,2.2c-1.4,0-2.2-0.8-2.2-2.2v-2.9c-1.7,3.5-6.2,5.5-9.7,5.5c-2.9,0-6.1-0.8-8.6-2.6c-4.6-3.1-6.9-8.2-6.7-14.1
			C-508.4,147.4-505,141.8-499.3,139.7L-499.3,139.7z M-483.4,156.6v-4.7c0-5.9-4.1-9-9.5-9.2c-4.3-0.1-8.6,2.2-10.3,6.4
			c-0.5,1.3-0.8,2.9-0.9,4.4c-0.1,3.9,1.1,7.5,4.4,10.2c1.8,1.4,4,2.1,6.2,2.3C-488.1,166-483.7,162.6-483.4,156.6z"/>
		<path d="M-456.1,138.5c4,0,7.9,1.7,9.7,4.9v-11.9c0-2.8,4.4-2.8,4.4,0v36.2c0,1.3-0.8,2.1-2.2,2.1s-2-0.8-2-2.1v-2.8
			c-2,3.7-6.2,5.3-9.8,5.3c-1.9,0-3.9-0.4-5.8-1.1l0.1,0.1c-6.5-2.7-9.8-8.6-9.7-15.6C-471.2,144.9-465.1,138.5-456.1,138.5z
			 M-446.4,156.6v-4.7c0-5.3-4.1-9-9.5-9.2c-4.3,0-8.5,2.3-10.3,6.4c-0.5,1.3-0.8,2.9-0.9,4.4c-0.1,3.9,1.2,7.5,4.4,10.2
			c1.7,1.4,3.9,2.1,6.2,2.3C-451,166-446.4,162.5-446.4,156.6z"/>
		<path d="M-425.4,139.7c2-0.9,4.1-1.2,6.4-1.1c3.4,0.1,7.3,1.1,9.5,4.7v-2.3c0-1.3,0.8-2.2,2.2-2.2c1.3,0,2.2,0.9,2.2,2.2v26.6
			c0,1.3-0.9,2.2-2.2,2.2c-1.4,0-2.2-0.8-2.2-2.2v-2.9c-1.7,3.5-6.2,5.5-9.7,5.5c-2.9,0-6.1-0.8-8.6-2.6c-4.6-3.1-6.9-8.2-6.7-14.1
			C-434.4,147.4-431.1,141.8-425.4,139.7L-425.4,139.7z M-409.5,156.6v-4.7c0-5.9-4.1-9-9.5-9.2c-4.3-0.1-8.6,2.2-10.3,6.4
			c-0.5,1.3-0.8,2.9-0.9,4.4c-0.1,3.9,1.1,7.5,4.4,10.2c1.8,1.4,4,2.1,6.2,2.3C-414.1,166-409.8,162.6-409.5,156.6z"/>
		<path d="M-345.3,151.8c-0.1-5.2-4.3-8.9-9.3-8.9c-6.3,0-11.3,4.7-11.3,11.6v13.2c0,1.3-0.9,2.1-2.2,2.1c-1.3,0-2.2-0.8-2.2-2.1
			v-14.9c0-3.4-1.4-6.7-4.1-8.5c-1.6-1-3.3-1.4-5.2-1.4c-5.9,0-11.2,4.5-11.2,11.2v13.5c0,2.8-4.4,2.7-4.4,0v-26.8
			c0-1.1,1-2.1,2.2-2.1c1.3,0,2.1,1,2.1,2.1v4.1c2.4-4.3,6.7-6.2,11.3-6.2c5.2,0,10.4,2.6,12.2,7.9c2.2-5.3,7.4-7.9,12.7-7.9
			c6.9,0,13.9,4.6,13.9,12.8v16.1c0,1.3-0.9,2.1-2.2,2.1c-1.4,0-2.2-0.8-2.2-2.1V151.8z"/>
		<path class="st4" d="M-331.5,132c0-3,4.5-2.9,4.5,0v35.9c0,2.8-4.5,2.9-4.5,0V132z"/>
		<path class="st4" d="M-288.9,165.8c-3.3,2.6-7.6,4.3-11.9,4.3c-10.5,0-19.2-7.6-19.2-20.4c0-9.6,6.1-17.5,15.7-19
			c2.1-0.2,4.1-0.2,6.4,0c9.4,1.4,16.3,9.6,16.3,19c-0.1,5.3-1.4,10-4.3,13.1l3.4,3.5c2,2-1,4.9-3.1,2.9L-288.9,165.8z M-289,159.6
			c2.2-2.7,2.9-5.9,2.9-9.8c0-7.7-5.2-13.9-12.5-15.1c-1.7-0.2-3.4-0.2-5.2,0c-7.3,1.1-11.9,7.5-11.9,15.1c0,9.6,6.7,16.2,14.8,16.2
			c3.4,0,6.5-1.2,9.1-3.4l-3.4-3.4c-2.1-2.1,1.1-5,3.1-2.8L-289,159.6z"/>
	</g>
	<g>
		<circle class="st5" cx="-764.6" cy="154.4" r="77.2"/>
		<path class="st4" d="M-704.4,192.3c-0.9,1.8-2.7,3.1-4.9,3.1c-3,0-5.5-2.5-5.5-5.5c0-3,2.5-5.5,5.5-5.5c2.2,0,4,1.3,4.9,3.1h9.4
			c1.5-3.1,2.8-6.2,3.8-9.4h-14.2c-0.9,1.8-2.7,3.1-4.9,3.1c-3,0-5.5-2.5-5.5-5.5c0-3,2.5-5.5,5.5-5.5c2.2,0,4,1.3,4.9,3.1h15.5
			c0.8-3.1,1.4-6.2,1.8-9.4h-23.6c-0.9,1.8-2.7,3.1-4.9,3.1c-3,0-5.5-2.5-5.5-5.5c0-3,2.5-5.5,5.5-5.5c2.2,0,4,1.3,4.9,3.1h24
			c0.1-1.6,0.2-3.2,0.2-4.9c0-1.5-0.1-3.1-0.2-4.6h-46c-0.9,1.8-2.7,3.1-4.9,3.1c-3,0-5.5-2.5-5.5-5.5c0-3,2.5-5.5,5.5-5.5
			c2.2,0,4,1.3,4.9,3.1h45.6c-0.4-3.2-1-6.4-1.8-9.4h-26.6c-0.9,1.8-2.7,3.1-4.9,3.1c-3,0-5.5-2.5-5.5-5.5c0-3,2.5-5.5,5.5-5.5
			c2.2,0,4,1.3,4.9,3.1h25.3c-1-3.3-2.3-6.4-3.8-9.4h-31c-0.9,1.8-2.7,3.1-4.9,3.1c-3,0-5.5-2.5-5.5-5.5c0-3,2.5-5.5,5.5-5.5
			c2.2,0,4,1.3,4.9,3.1h28.6c-1.9-3.3-4-6.5-6.3-9.4h-12.9c-0.9,1.8-2.7,3.1-4.9,3.1c-3,0-5.5-2.5-5.5-5.5c0-3,2.5-5.5,5.5-5.5
			c2.2,0,4,1.3,4.9,3.1h8.9C-721.6,87-742,77.2-764.6,77.2c-19.5,0-37.2,7.2-50.7,19.1h40.4c0.9-1.8,2.7-3.1,4.9-3.1
			c3,0,5.5,2.5,5.5,5.5c0,3-2.5,5.5-5.5,5.5c-2.2,0-4-1.3-4.9-3.1h-45.3c-3.3,3.4-6.2,7.1-8.8,11h43.1c0.9-1.8,2.7-3.1,4.9-3.1
			c3,0,5.5,2.5,5.5,5.5c0,3-2.5,5.5-5.5,5.5c-2.2,0-4-1.3-4.9-3.1h-46c-1.4,2.5-2.7,5.2-3.9,7.9h37.2c0.9-1.8,2.7-3.1,4.9-3.1
			c3,0,5.5,2.5,5.5,5.5c0,3-2.5,5.5-5.5,5.5c-2.2,0-4-1.3-4.9-3.1h-39c-1.1,3.1-2,6.2-2.7,9.4h18c0.9-1.8,2.7-3.1,4.9-3.1
			c3,0,5.5,2.5,5.5,5.5c0,3-2.5,5.5-5.5,5.5c-2.2,0-4-1.3-4.9-3.1H-841c-0.4,3.1-0.7,6.2-0.8,9.4h35.3c0.9-1.8,2.7-3.1,4.9-3.1
			c3,0,5.5,2.5,5.5,5.5c0,3-2.5,5.5-5.5,5.5c-2.2,0-4-1.3-4.9-3.1h-35.2c0.1,3.2,0.5,6.3,1,9.4h62.5c0.9-1.8,2.7-3.1,4.9-3.1
			c3,0,5.5,2.5,5.5,5.5c0,3-2.5,5.5-5.5,5.5c-2.2,0-4-1.3-4.9-3.1h-61.6c0.7,3.2,1.7,6.4,2.9,9.4h71.3c0.9-1.8,2.7-3.1,4.9-3.1
			c3,0,5.5,2.5,5.5,5.5c0,3-2.5,5.5-5.5,5.5c-2.2,0-4-1.3-4.9-3.1H-835c1.5,3.3,3.2,6.4,5.1,9.4h54.9c0.9-1.8,2.7-3.1,4.9-3.1
			c3,0,5.5,2.5,5.5,5.5c0,3-2.5,5.5-5.5,5.5c-2.2,0-4-1.3-4.9-3.1h-51.7c2.5,3.4,5.2,6.5,8.2,9.4h32.5c0.9-1.8,2.7-3.1,4.9-3.1
			c3,0,5.5,2.5,5.5,5.5c0,3-2.5,5.5-5.5,5.5c-2.2,0-4-1.3-4.9-3.1h-27.2c13.3,10.8,30.2,17.3,48.6,17.3c28.8,0,54-15.9,67.2-39.3
			H-704.4z"/>
	</g>
	<g>
		<circle class="st5" cx="154.4" cy="154.8" r="77.2"/>
		<path class="st4" d="M214.6,192.7c-0.9,1.8-2.7,3.1-4.9,3.1c-3,0-5.5-2.5-5.5-5.5c0-3,2.5-5.5,5.5-5.5c2.2,0,4,1.3,4.9,3.1h9.4
			c1.5-3.1,2.8-6.2,3.8-9.4h-14.2c-0.9,1.8-2.7,3.1-4.9,3.1c-3,0-5.5-2.5-5.5-5.5c0-3,2.5-5.5,5.5-5.5c2.2,0,4,1.3,4.9,3.1h15.5
			c0.8-3.1,1.4-6.2,1.8-9.4h-23.6c-0.9,1.8-2.7,3.1-4.9,3.1c-3,0-5.5-2.5-5.5-5.5c0-3,2.5-5.5,5.5-5.5c2.2,0,4,1.3,4.9,3.1h24
			c0.1-1.6,0.2-3.2,0.2-4.9c0-1.5-0.1-3.1-0.2-4.6h-46c-0.9,1.8-2.7,3.1-4.9,3.1c-3,0-5.5-2.5-5.5-5.5c0-3,2.5-5.5,5.5-5.5
			c2.2,0,4,1.3,4.9,3.1H231c-0.4-3.2-1-6.4-1.8-9.4h-26.6c-0.9,1.8-2.7,3.1-4.9,3.1c-3,0-5.5-2.5-5.5-5.5s2.5-5.5,5.5-5.5
			c2.2,0,4,1.3,4.9,3.1h25.3c-1-3.3-2.3-6.4-3.8-9.4h-31c-0.9,1.8-2.7,3.1-4.9,3.1c-3,0-5.5-2.5-5.5-5.5c0-3,2.5-5.5,5.5-5.5
			c2.2,0,4,1.3,4.9,3.1h28.6c-1.9-3.3-4-6.5-6.3-9.4h-12.9c-0.9,1.8-2.7,3.1-4.9,3.1c-3,0-5.5-2.5-5.5-5.5c0-3,2.5-5.5,5.5-5.5
			c2.2,0,4,1.3,4.9,3.1h8.9c-14.1-15.6-34.5-25.4-57.1-25.4c-19.5,0-37.2,7.2-50.7,19.1H144c0.9-1.8,2.7-3.1,4.9-3.1
			c3,0,5.5,2.5,5.5,5.5c0,3-2.5,5.5-5.5,5.5c-2.2,0-4-1.3-4.9-3.1H98.7c-3.3,3.4-6.2,7.1-8.8,11H133c0.9-1.8,2.7-3.1,4.9-3.1
			c3,0,5.5,2.5,5.5,5.5c0,3-2.5,5.5-5.5,5.5c-2.2,0-4-1.3-4.9-3.1H87c-1.4,2.5-2.7,5.2-3.9,7.9h37.2c0.9-1.8,2.7-3.1,4.9-3.1
			c3,0,5.5,2.5,5.5,5.5c0,3-2.5,5.5-5.5,5.5c-2.2,0-4-1.3-4.9-3.1h-39c-1.1,3.1-2,6.2-2.7,9.4h18c0.9-1.8,2.7-3.1,4.9-3.1
			c3,0,5.5,2.5,5.5,5.5s-2.5,5.5-5.5,5.5c-2.2,0-4-1.3-4.9-3.1H78c-0.4,3.1-0.7,6.2-0.8,9.4h35.3c0.9-1.8,2.7-3.1,4.9-3.1
			c3,0,5.5,2.5,5.5,5.5c0,3-2.5,5.5-5.5,5.5c-2.2,0-4-1.3-4.9-3.1H77.4c0.1,3.2,0.5,6.3,1,9.4h62.5c0.9-1.8,2.7-3.1,4.9-3.1
			c3,0,5.5,2.5,5.5,5.5c0,3-2.5,5.5-5.5,5.5c-2.2,0-4-1.3-4.9-3.1H79.2c0.7,3.2,1.7,6.4,2.9,9.4h71.3c0.9-1.8,2.7-3.1,4.9-3.1
			c3,0,5.5,2.5,5.5,5.5s-2.5,5.5-5.5,5.5c-2.2,0-4-1.3-4.9-3.1H84c1.5,3.3,3.2,6.4,5.1,9.4H144c0.9-1.8,2.7-3.1,4.9-3.1
			c3,0,5.5,2.5,5.5,5.5s-2.5,5.5-5.5,5.5c-2.2,0-4-1.3-4.9-3.1H92.3c2.5,3.4,5.2,6.5,8.2,9.4H133c0.9-1.8,2.7-3.1,4.9-3.1
			c3,0,5.5,2.5,5.5,5.5c0,3-2.5,5.5-5.5,5.5c-2.2,0-4-1.3-4.9-3.1h-27.2C119,225.5,136,232,154.4,232c28.8,0,54-15.9,67.2-39.3
			H214.6z"/>
	</g>
	<g>
		<circle class="st5" cx="881" cy="154.8" r="77.2"/>
		<path class="st3" d="M941.2,192.7c-0.9,1.8-2.7,3.1-4.9,3.1c-3,0-5.5-2.5-5.5-5.5c0-3,2.5-5.5,5.5-5.5c2.2,0,4,1.3,4.9,3.1h9.4
			c1.5-3.1,2.8-6.2,3.8-9.4h-14.2c-0.9,1.8-2.7,3.1-4.9,3.1c-3,0-5.5-2.5-5.5-5.5c0-3,2.5-5.5,5.5-5.5c2.2,0,4,1.3,4.9,3.1h15.5
			c0.8-3.1,1.4-6.2,1.8-9.4H934c-0.9,1.8-2.7,3.1-4.9,3.1c-3,0-5.5-2.5-5.5-5.5c0-3,2.5-5.5,5.5-5.5c2.2,0,4,1.3,4.9,3.1h24
			c0.1-1.6,0.2-3.2,0.2-4.9c0-1.5-0.1-3.1-0.2-4.6h-46c-0.9,1.8-2.7,3.1-4.9,3.1c-3,0-5.5-2.5-5.5-5.5c0-3,2.5-5.5,5.5-5.5
			c2.2,0,4,1.3,4.9,3.1h45.6c-0.4-3.2-1-6.4-1.8-9.4h-26.6c-0.9,1.8-2.7,3.1-4.9,3.1c-3,0-5.5-2.5-5.5-5.5s2.5-5.5,5.5-5.5
			c2.2,0,4,1.3,4.9,3.1h25.3c-1-3.3-2.3-6.4-3.8-9.4h-31c-0.9,1.8-2.7,3.1-4.9,3.1c-3,0-5.5-2.5-5.5-5.5c0-3,2.5-5.5,5.5-5.5
			c2.2,0,4,1.3,4.9,3.1h28.6c-1.9-3.3-4-6.5-6.3-9.4h-12.9c-0.9,1.8-2.7,3.1-4.9,3.1c-3,0-5.5-2.5-5.5-5.5c0-3,2.5-5.5,5.5-5.5
			c2.2,0,4,1.3,4.9,3.1h8.9C924,87.5,903.7,77.6,881,77.6c-19.5,0-37.2,7.2-50.7,19.1h40.4c0.9-1.8,2.7-3.1,4.9-3.1
			c3,0,5.5,2.5,5.5,5.5c0,3-2.5,5.5-5.5,5.5c-2.2,0-4-1.3-4.9-3.1h-45.3c-3.3,3.4-6.2,7.1-8.8,11h43.1c0.9-1.8,2.7-3.1,4.9-3.1
			c3,0,5.5,2.5,5.5,5.5c0,3-2.5,5.5-5.5,5.5c-2.2,0-4-1.3-4.9-3.1h-46c-1.4,2.5-2.7,5.2-3.9,7.9H847c0.9-1.8,2.7-3.1,4.9-3.1
			c3,0,5.5,2.5,5.5,5.5c0,3-2.5,5.5-5.5,5.5c-2.2,0-4-1.3-4.9-3.1h-39c-1.1,3.1-2,6.2-2.7,9.4h18c0.9-1.8,2.7-3.1,4.9-3.1
			c3,0,5.5,2.5,5.5,5.5s-2.5,5.5-5.5,5.5c-2.2,0-4-1.3-4.9-3.1h-18.8c-0.4,3.1-0.7,6.2-0.8,9.4h35.3c0.9-1.8,2.7-3.1,4.9-3.1
			c3,0,5.5,2.5,5.5,5.5c0,3-2.5,5.5-5.5,5.5c-2.2,0-4-1.3-4.9-3.1H804c0.1,3.2,0.5,6.3,1,9.4h62.5c0.9-1.8,2.7-3.1,4.9-3.1
			c3,0,5.5,2.5,5.5,5.5c0,3-2.5,5.5-5.5,5.5c-2.2,0-4-1.3-4.9-3.1h-61.6c0.7,3.2,1.7,6.4,2.9,9.4h71.3c0.9-1.8,2.7-3.1,4.9-3.1
			c3,0,5.5,2.5,5.5,5.5s-2.5,5.5-5.5,5.5c-2.2,0-4-1.3-4.9-3.1h-69.4c1.5,3.3,3.2,6.4,5.1,9.4h54.9c0.9-1.8,2.7-3.1,4.9-3.1
			c3,0,5.5,2.5,5.5,5.5s-2.5,5.5-5.5,5.5c-2.2,0-4-1.3-4.9-3.1h-51.7c2.5,3.4,5.2,6.5,8.2,9.4h32.5c0.9-1.8,2.7-3.1,4.9-3.1
			c3,0,5.5,2.5,5.5,5.5c0,3-2.5,5.5-5.5,5.5c-2.2,0-4-1.3-4.9-3.1h-27.2c13.3,10.8,30.2,17.3,48.6,17.3c28.8,0,54-15.9,67.2-39.3
			H941.2z"/>
	</g>
	<rect x="1036.2" y="0" class="st4" width="309.6" height="309.6"/>
	<g>
		<circle class="st5" cx="1190.6" cy="154.8" r="77.2"/>
		<path class="st3" d="M1250.9,192.7c-0.9,1.8-2.7,3.1-4.9,3.1c-3,0-5.5-2.5-5.5-5.5c0-3,2.5-5.5,5.5-5.5c2.2,0,4,1.3,4.9,3.1h9.4
			c1.5-3.1,2.8-6.2,3.8-9.4h-14.2c-0.9,1.8-2.7,3.1-4.9,3.1c-3,0-5.5-2.5-5.5-5.5c0-3,2.5-5.5,5.5-5.5c2.2,0,4,1.3,4.9,3.1h15.5
			c0.8-3.1,1.4-6.2,1.8-9.4h-23.6c-0.9,1.8-2.7,3.1-4.9,3.1c-3,0-5.5-2.5-5.5-5.5c0-3,2.5-5.5,5.5-5.5c2.2,0,4,1.3,4.9,3.1h24
			c0.1-1.6,0.2-3.2,0.2-4.9c0-1.5-0.1-3.1-0.2-4.6h-46c-0.9,1.8-2.7,3.1-4.9,3.1c-3,0-5.5-2.5-5.5-5.5c0-3,2.5-5.5,5.5-5.5
			c2.2,0,4,1.3,4.9,3.1h45.6c-0.4-3.2-1-6.4-1.8-9.4h-26.6c-0.9,1.8-2.7,3.1-4.9,3.1c-3,0-5.5-2.5-5.5-5.5c0-3,2.5-5.5,5.5-5.5
			c2.2,0,4,1.3,4.9,3.1h25.3c-1-3.3-2.3-6.4-3.8-9.4h-31c-0.9,1.8-2.7,3.1-4.9,3.1c-3,0-5.5-2.5-5.5-5.5c0-3,2.5-5.5,5.5-5.5
			c2.2,0,4,1.3,4.9,3.1h28.6c-1.9-3.3-4-6.5-6.3-9.4h-12.9c-0.9,1.8-2.7,3.1-4.9,3.1c-3,0-5.5-2.5-5.5-5.5s2.5-5.5,5.5-5.5
			c2.2,0,4,1.3,4.9,3.1h8.9c-14.1-15.6-34.5-25.4-57.1-25.4c-19.5,0-37.2,7.2-50.7,19.1h40.4c0.9-1.8,2.7-3.1,4.9-3.1
			c3,0,5.5,2.5,5.5,5.5c0,3-2.5,5.5-5.5,5.5c-2.2,0-4-1.3-4.9-3.1h-45.3c-3.3,3.4-6.2,7.1-8.8,11h43.1c0.9-1.8,2.7-3.1,4.9-3.1
			c3,0,5.5,2.5,5.5,5.5c0,3-2.5,5.5-5.5,5.5c-2.2,0-4-1.3-4.9-3.1h-46c-1.4,2.5-2.7,5.2-3.9,7.9h37.2c0.9-1.8,2.7-3.1,4.9-3.1
			c3,0,5.5,2.5,5.5,5.5c0,3-2.5,5.5-5.5,5.5c-2.2,0-4-1.3-4.9-3.1h-39c-1.1,3.1-2,6.2-2.7,9.4h18c0.9-1.8,2.7-3.1,4.9-3.1
			c3,0,5.5,2.5,5.5,5.5s-2.5,5.5-5.5,5.5c-2.2,0-4-1.3-4.9-3.1h-18.8c-0.4,3.1-0.7,6.2-0.8,9.4h35.3c0.9-1.8,2.7-3.1,4.9-3.1
			c3,0,5.5,2.5,5.5,5.5c0,3-2.5,5.5-5.5,5.5c-2.2,0-4-1.3-4.9-3.1h-35.2c0.1,3.2,0.5,6.3,1,9.4h62.5c0.9-1.8,2.7-3.1,4.9-3.1
			c3,0,5.5,2.5,5.5,5.5c0,3-2.5,5.5-5.5,5.5c-2.2,0-4-1.3-4.9-3.1h-61.6c0.7,3.2,1.7,6.4,2.9,9.4h71.3c0.9-1.8,2.7-3.1,4.9-3.1
			c3,0,5.5,2.5,5.5,5.5s-2.5,5.5-5.5,5.5c-2.2,0-4-1.3-4.9-3.1h-69.4c1.5,3.3,3.2,6.4,5.1,9.4h54.9c0.9-1.8,2.7-3.1,4.9-3.1
			c3,0,5.5,2.5,5.5,5.5s-2.5,5.5-5.5,5.5c-2.2,0-4-1.3-4.9-3.1h-51.7c2.5,3.4,5.2,6.5,8.2,9.4h32.5c0.9-1.8,2.7-3.1,4.9-3.1
			c3,0,5.5,2.5,5.5,5.5c0,3-2.5,5.5-5.5,5.5c-2.2,0-4-1.3-4.9-3.1H1142c13.3,10.8,30.2,17.3,48.6,17.3c28.8,0,54-15.9,67.2-39.3
			H1250.9z"/>
	</g>
	<rect x="417" class="st6" width="309.6" height="309.6"/>
	<g>
		<circle class="st5" cx="571.4" cy="154.8" r="77.2"/>
		<path class="st3" d="M631.6,192.7c-0.9,1.8-2.7,3.1-4.9,3.1c-3,0-5.5-2.5-5.5-5.5c0-3,2.5-5.5,5.5-5.5c2.2,0,4,1.3,4.9,3.1h9.4
			c1.5-3.1,2.8-6.2,3.8-9.4h-14.2c-0.9,1.8-2.7,3.1-4.9,3.1c-3,0-5.5-2.5-5.5-5.5c0-3,2.5-5.5,5.5-5.5c2.2,0,4,1.3,4.9,3.1h15.5
			c0.8-3.1,1.4-6.2,1.8-9.4h-23.6c-0.9,1.8-2.7,3.1-4.9,3.1c-3,0-5.5-2.5-5.5-5.5c0-3,2.5-5.5,5.5-5.5c2.2,0,4,1.3,4.9,3.1h24
			c0.1-1.6,0.2-3.2,0.2-4.9c0-1.5-0.1-3.1-0.2-4.6h-46c-0.9,1.8-2.7,3.1-4.9,3.1c-3,0-5.5-2.5-5.5-5.5c0-3,2.5-5.5,5.5-5.5
			c2.2,0,4,1.3,4.9,3.1H648c-0.4-3.2-1-6.4-1.8-9.4h-26.6c-0.9,1.8-2.7,3.1-4.9,3.1c-3,0-5.5-2.5-5.5-5.5s2.5-5.5,5.5-5.5
			c2.2,0,4,1.3,4.9,3.1h25.3c-1-3.3-2.3-6.4-3.8-9.4h-31c-0.9,1.8-2.7,3.1-4.9,3.1c-3,0-5.5-2.5-5.5-5.5c0-3,2.5-5.5,5.5-5.5
			c2.2,0,4,1.3,4.9,3.1h28.6c-1.9-3.3-4-6.5-6.3-9.4h-12.9c-0.9,1.8-2.7,3.1-4.9,3.1c-3,0-5.5-2.5-5.5-5.5c0-3,2.5-5.5,5.5-5.5
			c2.2,0,4,1.3,4.9,3.1h8.9c-14.1-15.6-34.5-25.4-57.1-25.4c-19.5,0-37.2,7.2-50.7,19.1H561c0.9-1.8,2.7-3.1,4.9-3.1
			c3,0,5.5,2.5,5.5,5.5c0,3-2.5,5.5-5.5,5.5c-2.2,0-4-1.3-4.9-3.1h-45.3c-3.3,3.4-6.2,7.1-8.8,11H550c0.9-1.8,2.7-3.1,4.9-3.1
			c3,0,5.5,2.5,5.5,5.5c0,3-2.5,5.5-5.5,5.5c-2.2,0-4-1.3-4.9-3.1h-46c-1.4,2.5-2.7,5.2-3.9,7.9h37.2c0.9-1.8,2.7-3.1,4.9-3.1
			c3,0,5.5,2.5,5.5,5.5c0,3-2.5,5.5-5.5,5.5c-2.2,0-4-1.3-4.9-3.1h-39c-1.1,3.1-2,6.2-2.7,9.4h18c0.9-1.8,2.7-3.1,4.9-3.1
			c3,0,5.5,2.5,5.5,5.5s-2.5,5.5-5.5,5.5c-2.2,0-4-1.3-4.9-3.1H495c-0.4,3.1-0.7,6.2-0.8,9.4h35.3c0.9-1.8,2.7-3.1,4.9-3.1
			c3,0,5.5,2.5,5.5,5.5c0,3-2.5,5.5-5.5,5.5c-2.2,0-4-1.3-4.9-3.1h-35.2c0.1,3.2,0.5,6.3,1,9.4h62.5c0.9-1.8,2.7-3.1,4.9-3.1
			c3,0,5.5,2.5,5.5,5.5c0,3-2.5,5.5-5.5,5.5c-2.2,0-4-1.3-4.9-3.1h-61.6c0.7,3.2,1.7,6.4,2.9,9.4h71.3c0.9-1.8,2.7-3.1,4.9-3.1
			c3,0,5.5,2.5,5.5,5.5s-2.5,5.5-5.5,5.5c-2.2,0-4-1.3-4.9-3.1H501c1.5,3.3,3.2,6.4,5.1,9.4H561c0.9-1.8,2.7-3.1,4.9-3.1
			c3,0,5.5,2.5,5.5,5.5s-2.5,5.5-5.5,5.5c-2.2,0-4-1.3-4.9-3.1h-51.7c2.5,3.4,5.2,6.5,8.2,9.4H550c0.9-1.8,2.7-3.1,4.9-3.1
			c3,0,5.5,2.5,5.5,5.5c0,3-2.5,5.5-5.5,5.5c-2.2,0-4-1.3-4.9-3.1h-27.2C536,225.5,553,232,571.4,232c28.8,0,54-15.9,67.2-39.3
			H631.6z"/>
	</g>
	<g>
		<rect x="256.2" y="1216.2" class="st2" width="399.4" height="58.7"/>
		<path d="M292.9,1238.6c0-5.5-4.4-9.4-9.3-9.4c-5.8,0-11.3,4.8-11.3,11.3v13.9c0,1.3-0.8,2.1-2.2,2.1s-2.3-0.8-2.3-2.1v-26.9
			c0-2.8,4.3-2.8,4.3,0.1v3.7c2.2-4.4,6.8-6.2,11.5-6.2c7,0,13.6,4.8,13.6,13.4v15.9c0,1.3-0.8,2.1-2.2,2.1c-1.3,0-2.2-0.8-2.2-2.1
			V1238.6z"/>
		<path d="M307.7,1251.4c-2.7-3.2-3.8-7-3.7-11.5c0.6-6.7,4.5-12.2,11.1-14.1c1.4-0.4,3.1-0.5,4.6-0.5c1.4,0,2.9,0.1,4.4,0.5
			c6.5,1.9,10.6,7.4,11.2,14.1c0.2,4.5-1,8.3-3.6,11.5c-2.9,3.5-7.3,5.4-12,5.4C314.9,1256.8,310.6,1254.9,307.7,1251.4z
			 M319.6,1229.3c-1.1,0-2.3,0.2-3.2,0.4c-5,1.3-8,6-8,11.4c0,2.7,0.8,5.5,2.6,7.6c2.1,2.5,5.3,4,8.6,4c3.2,0,6.5-1.6,8.6-4
			c1.7-2,2.6-4.9,2.6-7.5c0-5.5-2.9-10.2-8-11.5C322,1229.5,320.8,1229.3,319.6,1229.3z"/>
		<path d="M344.9,1248.7c0.6,2.7,5.3,4.1,9.7,4.1c2.9,0,9.2-1.3,9.2-5.5c0-3.8-4.6-4-9.4-4.4c-6.5-0.6-13.4-1.1-13.4-8.5
			c0-6.4,7.3-9.2,13.1-9.2c4.6,0,11,0.8,13.1,6.2c0.8,2.7-3.3,3.8-4.1,1.6c-1.3-3.5-6.4-3.7-9.1-3.7c-3.5,0-8.7,1.5-8.7,5.2
			c0,3.8,4.4,3.8,9.2,4.1c6.6,0.6,13.6,1.2,13.6,8.7c0,7.6-8.6,9.4-13.6,9.4s-12.7-1.3-13.9-7.3
			C340,1246.9,344.4,1245.7,344.9,1248.7z"/>
		<path d="M388.4,1225.7c2.7,0,2.7,3.8,0,3.8h-6.5v16.2c0,3.4,0.5,7,4.6,7c0.9,0,2.2-0.3,2.8-0.7c2.5-1.4,4.5,2.1,1.8,3.6
			c-1.5,0.8-3,1-4.6,1c-7.2,0-8.9-5.3-8.9-11v-16.2h-4c-2.8,0-2.6-3.8,0-3.8h4v-7c0-2.9,4.3-2.8,4.3,0v7H388.4z"/>
		<path d="M402.4,1230.7c1.9-4,5.5-5.1,8.9-5.1c1.4,0,2.3,0.7,2.3,2.1c0,1.3-0.9,2-2.3,2c-6.2,0-8.8,4.9-8.8,11v13.6
			c0,1.3-1,2.1-2.2,2.1c-1.3,0-2.2-0.8-2.2-2.1v-26.6c0-2.6,4.3-2.9,4.3,0V1230.7z"/>
		<path d="M425.8,1226.5c2-0.9,4.1-1.2,6.4-1.1c3.4,0.1,7.3,1.1,9.5,4.7v-2.3c0-1.3,0.8-2.2,2.2-2.2c1.3,0,2.2,0.9,2.2,2.2v26.6
			c0,1.3-0.9,2.2-2.2,2.2c-1.4,0-2.2-0.8-2.2-2.2v-2.9c-1.7,3.5-6.2,5.5-9.7,5.5c-2.9,0-6.1-0.8-8.6-2.6c-4.6-3.1-6.9-8.2-6.7-14.1
			C416.8,1234.2,420.1,1228.6,425.8,1226.5L425.8,1226.5z M441.7,1243.4v-4.7c0-5.9-4.1-9-9.5-9.2c-4.3-0.1-8.6,2.2-10.3,6.4
			c-0.5,1.3-0.8,2.9-0.9,4.4c-0.1,3.9,1.1,7.5,4.4,10.2c1.8,1.4,4,2.1,6.2,2.3C437.1,1252.8,441.4,1249.4,441.7,1243.4z"/>
		<path d="M469.1,1225.3c4,0,7.9,1.7,9.7,4.9v-11.9c0-2.8,4.4-2.8,4.4,0v36.2c0,1.3-0.8,2.1-2.2,2.1s-2-0.8-2-2.1v-2.8
			c-2,3.7-6.2,5.3-9.8,5.3c-1.9,0-3.9-0.4-5.8-1.1l0.1,0.1c-6.5-2.7-9.8-8.6-9.7-15.6C454,1231.7,460.1,1225.3,469.1,1225.3z
			 M478.8,1243.4v-4.7c0-5.3-4.1-9-9.5-9.2c-4.3,0-8.5,2.3-10.3,6.4c-0.5,1.3-0.8,2.9-0.9,4.4c-0.1,3.9,1.2,7.5,4.4,10.2
			c1.7,1.4,3.9,2.1,6.2,2.3C474.2,1252.8,478.8,1249.3,478.8,1243.4z"/>
		<path d="M499.8,1226.5c2-0.9,4.1-1.2,6.4-1.1c3.4,0.1,7.3,1.1,9.5,4.7v-2.3c0-1.3,0.8-2.2,2.2-2.2c1.3,0,2.2,0.9,2.2,2.2v26.6
			c0,1.3-0.9,2.2-2.2,2.2c-1.4,0-2.2-0.8-2.2-2.2v-2.9c-1.7,3.5-6.2,5.5-9.7,5.5c-2.9,0-6.1-0.8-8.6-2.6c-4.6-3.1-6.9-8.2-6.7-14.1
			C490.7,1234.2,494.1,1228.6,499.8,1226.5L499.8,1226.5z M515.7,1243.4v-4.7c0-5.9-4.1-9-9.5-9.2c-4.3-0.1-8.6,2.2-10.3,6.4
			c-0.5,1.3-0.8,2.9-0.9,4.4c-0.1,3.9,1.1,7.5,4.4,10.2c1.8,1.4,4,2.1,6.2,2.3C511.1,1252.8,515.4,1249.4,515.7,1243.4z"/>
		<path d="M579.9,1238.6c-0.1-5.2-4.3-8.9-9.3-8.9c-6.3,0-11.3,4.7-11.3,11.6v13.2c0,1.3-0.9,2.1-2.2,2.1c-1.3,0-2.2-0.8-2.2-2.1
			v-14.9c0-3.4-1.4-6.7-4.1-8.5c-1.6-1-3.3-1.4-5.2-1.4c-5.9,0-11.2,4.5-11.2,11.2v13.5c0,2.8-4.4,2.7-4.4,0v-26.8
			c0-1.1,1-2.1,2.2-2.1c1.3,0,2.1,1,2.1,2.1v4.1c2.4-4.3,6.7-6.2,11.3-6.2c5.2,0,10.4,2.6,12.2,7.9c2.2-5.3,7.4-7.9,12.7-7.9
			c6.9,0,13.9,4.6,13.9,12.8v16.1c0,1.3-0.9,2.1-2.2,2.1c-1.4,0-2.2-0.8-2.2-2.1V1238.6z"/>
		<path class="st4" d="M593.6,1218.8c0-3,4.5-2.9,4.5,0v35.9c0,2.8-4.5,2.9-4.5,0V1218.8z"/>
		<path class="st4" d="M636.2,1252.6c-3.3,2.6-7.6,4.3-11.9,4.3c-10.5,0-19.2-7.6-19.2-20.4c0-9.6,6.1-17.5,15.7-19
			c2.1-0.2,4.1-0.2,6.4,0c9.4,1.4,16.3,9.6,16.3,19c-0.1,5.3-1.4,10-4.3,13.1l3.4,3.5c2,2-1,4.9-3.1,2.9L636.2,1252.6z
			 M636.2,1246.4c2.2-2.7,2.9-5.9,2.9-9.8c0-7.7-5.2-13.9-12.5-15.1c-1.7-0.2-3.4-0.2-5.2,0c-7.3,1.1-11.9,7.5-11.9,15.1
			c0,9.6,6.7,16.2,14.8,16.2c3.4,0,6.5-1.2,9.1-3.4l-3.4-3.4c-2.1-2.1,1.1-5,3.1-2.8L636.2,1246.4z"/>
	</g>
	<g>
		<circle class="st3" cx="160.5" cy="1241.2" r="77.2"/>
		<path class="st4" d="M220.8,1279.1c-0.9,1.8-2.7,3.1-4.9,3.1c-3,0-5.5-2.5-5.5-5.5c0-3,2.5-5.5,5.5-5.5c2.2,0,4,1.3,4.9,3.1h9.4
			c1.5-3.1,2.8-6.2,3.8-9.4h-14.2c-0.9,1.8-2.7,3.1-4.9,3.1c-3,0-5.5-2.5-5.5-5.5c0-3,2.5-5.5,5.5-5.5c2.2,0,4,1.3,4.9,3.1h15.5
			c0.8-3.1,1.4-6.2,1.8-9.4h-23.6c-0.9,1.8-2.7,3.1-4.9,3.1c-3,0-5.5-2.5-5.5-5.5c0-3,2.5-5.5,5.5-5.5c2.2,0,4,1.3,4.9,3.1h24
			c0.1-1.6,0.2-3.2,0.2-4.9c0-1.5-0.1-3.1-0.2-4.6h-46c-0.9,1.8-2.7,3.1-4.9,3.1c-3,0-5.5-2.5-5.5-5.5s2.5-5.5,5.5-5.5
			c2.2,0,4,1.3,4.9,3.1h45.6c-0.4-3.2-1-6.4-1.8-9.4h-26.6c-0.9,1.8-2.7,3.1-4.9,3.1c-3,0-5.5-2.5-5.5-5.5s2.5-5.5,5.5-5.5
			c2.2,0,4,1.3,4.9,3.1h25.3c-1-3.3-2.3-6.4-3.8-9.4h-31c-0.9,1.8-2.7,3.1-4.9,3.1c-3,0-5.5-2.5-5.5-5.5c0-3,2.5-5.5,5.5-5.5
			c2.2,0,4,1.3,4.9,3.1h28.6c-1.9-3.3-4-6.5-6.3-9.4h-12.9c-0.9,1.8-2.7,3.1-4.9,3.1c-3,0-5.5-2.5-5.5-5.5c0-3,2.5-5.5,5.5-5.5
			c2.2,0,4,1.3,4.9,3.1h8.9c-14.1-15.6-34.5-25.4-57.1-25.4c-19.5,0-37.2,7.2-50.7,19.1h40.4c0.9-1.8,2.7-3.1,4.9-3.1
			c3,0,5.5,2.5,5.5,5.5c0,3-2.5,5.5-5.5,5.5c-2.2,0-4-1.3-4.9-3.1h-45.3c-3.3,3.4-6.2,7.1-8.8,11h43.1c0.9-1.8,2.7-3.1,4.9-3.1
			c3,0,5.5,2.5,5.5,5.5s-2.5,5.5-5.5,5.5c-2.2,0-4-1.3-4.9-3.1h-46c-1.4,2.5-2.7,5.2-3.9,7.9h37.2c0.9-1.8,2.7-3.1,4.9-3.1
			c3,0,5.5,2.5,5.5,5.5c0,3-2.5,5.5-5.5,5.5c-2.2,0-4-1.3-4.9-3.1h-39c-1.1,3.1-2,6.2-2.7,9.4h18c0.9-1.8,2.7-3.1,4.9-3.1
			c3,0,5.5,2.5,5.5,5.5s-2.5,5.5-5.5,5.5c-2.2,0-4-1.3-4.9-3.1H84.2c-0.4,3.1-0.7,6.2-0.8,9.4h35.3c0.9-1.8,2.7-3.1,4.9-3.1
			c3,0,5.5,2.5,5.5,5.5c0,3-2.5,5.5-5.5,5.5c-2.2,0-4-1.3-4.9-3.1H83.5c0.1,3.2,0.5,6.3,1,9.4H147c0.9-1.8,2.7-3.1,4.9-3.1
			c3,0,5.5,2.5,5.5,5.5s-2.5,5.5-5.5,5.5c-2.2,0-4-1.3-4.9-3.1H85.4c0.7,3.2,1.7,6.4,2.9,9.4h71.3c0.9-1.8,2.7-3.1,4.9-3.1
			c3,0,5.5,2.5,5.5,5.5c0,3-2.5,5.5-5.5,5.5c-2.2,0-4-1.3-4.9-3.1H90.2c1.5,3.3,3.2,6.4,5.1,9.4h54.9c0.9-1.8,2.7-3.1,4.9-3.1
			c3,0,5.5,2.5,5.5,5.5s-2.5,5.5-5.5,5.5c-2.2,0-4-1.3-4.9-3.1H98.5c2.5,3.4,5.2,6.5,8.2,9.4h32.5c0.9-1.8,2.7-3.1,4.9-3.1
			c3,0,5.5,2.5,5.5,5.5c0,3-2.5,5.5-5.5,5.5c-2.2,0-4-1.3-4.9-3.1h-27.2c13.3,10.8,30.2,17.3,48.6,17.3c28.8,0,54-15.9,67.2-39.3
			H220.8z"/>
	</g>
	<g>
		<circle class="st5" cx="-757" cy="1061.1" r="152.6"/>
		<path class="st4" d="M-637.9,1136c-1.8,3.7-5.4,6.2-9.7,6.2c-6,0-10.9-4.9-10.9-10.9c0-6,4.9-10.9,10.9-10.9c4.3,0,8,2.6,9.7,6.2
			h18.5c2.9-6,5.5-12.2,7.5-18.7h-28c-1.8,3.7-5.4,6.2-9.7,6.2c-6,0-10.9-4.9-10.9-10.9c0-6,4.9-10.9,10.9-10.9c4.3,0,8,2.6,9.7,6.2
			h30.6c1.5-6.1,2.8-12.3,3.6-18.7h-46.6c-1.8,3.7-5.4,6.2-9.7,6.2c-6,0-10.9-4.9-10.9-10.9s4.9-10.9,10.9-10.9c4.3,0,8,2.6,9.7,6.2
			h47.4c0.2-3.2,0.5-6.4,0.5-9.6c0-3.1-0.3-6-0.5-9.1h-91c-1.8,3.7-5.4,6.2-9.7,6.2c-6,0-10.9-4.9-10.9-10.9c0-6,4.9-10.9,10.9-10.9
			c4.3,0,8,2.6,9.7,6.2h90.3c-0.8-6.4-2-12.6-3.5-18.7h-52.5c-1.8,3.7-5.4,6.2-9.7,6.2c-6,0-10.9-4.9-10.9-10.9s4.9-10.9,10.9-10.9
			c4.3,0,8,2.6,9.7,6.2h50c-2.1-6.4-4.6-12.6-7.5-18.7h-61.2c-1.8,3.7-5.4,6.2-9.7,6.2c-6,0-10.9-4.9-10.9-10.9
			c0-6,4.9-10.9,10.9-10.9c4.3,0,8,2.6,9.7,6.2h56.5c-3.7-6.6-7.9-12.8-12.4-18.7h-25.4c-1.8,3.7-5.4,6.2-9.7,6.2
			c-6,0-10.9-4.9-10.9-10.9s4.9-10.9,10.9-10.9c4.3,0,8,2.6,9.7,6.2h17.6c-27.9-30.8-68.1-50.3-113-50.3
			c-38.5,0-73.5,14.3-100.3,37.8h79.8c1.8-3.7,5.4-6.2,9.7-6.2c6,0,10.9,4.9,10.9,10.9c0,6-4.9,10.9-10.9,10.9c-4.3,0-8-2.6-9.7-6.2
			h-89.6c-6.4,6.7-12.3,14-17.4,21.8h85.2c1.8-3.7,5.4-6.2,9.7-6.2c6,0,10.9,4.9,10.9,10.9c0,6-4.9,10.9-10.9,10.9
			c-4.3,0-8-2.6-9.7-6.2h-90.9c-2.8,5-5.4,10.2-7.6,15.6h73.7c1.8-3.7,5.4-6.2,9.7-6.2c6,0,10.9,4.9,10.9,10.9
			c0,6-4.9,10.9-10.9,10.9c-4.3,0-8-2.6-9.7-6.2h-77.1c-2.1,6.1-3.9,12.3-5.2,18.7h35.7c1.8-3.7,5.4-6.2,9.7-6.2
			c6,0,10.9,4.9,10.9,10.9s-4.9,10.9-10.9,10.9c-4.3,0-8-2.6-9.7-6.2h-37.1c-0.9,6.1-1.4,12.3-1.5,18.7h69.7
			c1.8-3.7,5.4-6.2,9.7-6.2c6,0,10.9,4.9,10.9,10.9c0,6-4.9,10.9-10.9,10.9c-4.3,0-8-2.6-9.7-6.2h-69.6c0.3,6.3,0.9,12.6,1.9,18.7
			h123.6c1.8-3.7,5.4-6.2,9.7-6.2c6,0,10.9,4.9,10.9,10.9s-4.9,10.9-10.9,10.9c-4.3,0-8-2.6-9.7-6.2h-121.8
			c1.5,6.4,3.4,12.6,5.6,18.7h141.1c1.8-3.7,5.4-6.2,9.7-6.2c6,0,10.9,4.9,10.9,10.9s-4.9,10.9-10.9,10.9c-4.3,0-8-2.6-9.7-6.2
			h-137.3c2.9,6.5,6.3,12.7,10,18.7h108.6c1.8-3.7,5.4-6.2,9.7-6.2c6,0,10.9,4.9,10.9,10.9c0,6-4.9,10.9-10.9,10.9
			c-4.3,0-8-2.6-9.7-6.2h-102.2c4.9,6.6,10.2,12.9,16.1,18.7h64.3c1.8-3.7,5.4-6.2,9.7-6.2c6,0,10.9,4.9,10.9,10.9
			c0,6-4.9,10.9-10.9,10.9c-4.3,0-8-2.6-9.7-6.2h-53.8c26.2,21.3,59.7,34.1,96.1,34.1c57,0,106.7-31.3,132.9-77.7H-637.9z"/>
	</g>
</g>
<g id="Ebene_3" class="st0">
	<circle class="st7" cx="-919" cy="154.4" r="77.2"/>
	<circle class="st7" cx="-764.6" cy="308.8" r="77.2"/>
	<circle class="st7" cx="-764.6" cy="0" r="77.2"/>
	<circle class="st7" cx="-204.6" cy="155.7" r="77.2"/>
	<g class="st8">
		<g>
			<line class="st9" x1="-687.4" y1="-21.9" x2="-687.4" y2="-18.4"/>
			<line class="st10" x1="-687.4" y1="-11.4" x2="-687.4" y2="324"/>
			<line class="st9" x1="-687.4" y1="327.6" x2="-687.4" y2="331.1"/>
		</g>
	</g>
	<g class="st8">
		<g>
			<line class="st9" x1="-841.8" y1="-22.1" x2="-841.8" y2="-18.6"/>
			<line class="st10" x1="-841.8" y1="-11.6" x2="-841.8" y2="323.9"/>
			<line class="st9" x1="-841.8" y1="327.4" x2="-841.8" y2="330.9"/>
		</g>
	</g>
	<g class="st8">
		<g>
			<line class="st9" x1="-969.6" y1="77.2" x2="-966.1" y2="77.2"/>
			<line class="st11" x1="-959.2" y1="77.2" x2="-211.6" y2="77.2"/>
			<line class="st9" x1="-208.1" y1="77.2" x2="-204.6" y2="77.2"/>
		</g>
	</g>
	<g class="st8">
		<g>
			<line class="st9" x1="-981.1" y1="231.6" x2="-977.6" y2="231.6"/>
			<line class="st12" x1="-970.6" y1="231.6" x2="-211.6" y2="231.6"/>
			<line class="st9" x1="-208.1" y1="231.6" x2="-204.6" y2="231.6"/>
		</g>
	</g>
	<circle class="st7" cx="329.4" cy="575.4" r="77.2"/>
	<circle class="st7" cx="309.6" cy="154.8" r="77.2"/>
	<circle class="st7" cx="154.4" cy="309.2" r="77.2"/>
	<circle class="st7" cx="0" cy="154.8" r="77.2"/>
	<circle class="st7" cx="154.4" cy="0.4" r="77.2"/>
</g>
</svg>
